<?xml version="1.0" encoding="utf-8"?>
<!-- Generator: Adobe Illustrator 18.1.1, SVG Export Plug-In . SVG Version: 6.00 Build 0)  -->
<svg version="1.1" id="Layer_1" xmlns="http://www.w3.org/2000/svg" xmlns:xlink="http://www.w3.org/1999/xlink" x="0px" y="0px"
	 viewBox="643 420.9 519.1 79.4" enable-background="new 643 420.9 519.1 79.4" xml:space="preserve">
<g id="Layer_2" display="none" opacity="0.22">
</g>
<g id="Layer_1_1_">
</g>
<g id="Layer_6">
</g>
<path fill="#CCD6EA" d="M1151.2,454.8c-2.8-16.1-20-25.2-34.7-26.3c-74.6-5.3-148.9-6.4-223.8-3.3c-36.6,1.7-72.9,4.2-109.3,6.9
	c-35.5,2.8-81.3,1.1-110.7,23.6c-7.5,5.8-10.5,19.1,0,24.1c32.7,16.1,72.7,8.6,107.9,7.2c37.2-1.4,74.6-1.4,112-0.6
	c74.6,1.7,149.5,6.4,223.8,13.6c16.1,1.7,30-12.5,34.7-26.3C1153.4,467,1152.3,461.5,1151.2,454.8z"/>
<g>
	<path fill="#4F76A4" d="M688.6,451.2c10-7.5,19.7-15.3,31.9-20.8c-1.7-2.5-5.3-4.2-9.7-4.2h-48c-4.4,0-8.3,1.9-10,4.4
		c0.3,0,0.6,0.3,0.8,0.3c11.4,6.4,21.6,13.6,32.4,20.2C686.7,451.5,687.8,452,688.6,451.2z"/>
	<path fill="#4F76A4" d="M673.9,450.1c-7.2-4.7-14.4-9.2-21.6-13.6v21.9C659.2,455.6,666.7,453.2,673.9,450.1z"/>
	<path fill="#4F76A4" d="M721.3,459.5V436c-8,4.2-15,9.2-21.6,14.1C706.9,453.2,713.8,457.3,721.3,459.5z"/>
	<path fill="#4F76A4" d="M695,454c-1.7,1.4-4.7,3.3-8.3,3.3c-3.1,0-6.7-3.1-7.5-3.3c-8.9,3.9-18.3,6.7-27.2,10.5v0.3
		c0,3.9,4.7,6.9,10.8,6.9h48c5.8,0,10.5-3.1,10.5-6.9C711.9,462.3,703.6,457.6,695,454z"/>
</g>
<g id="Language_x5F_button">
</g>
<g id="Language_x5F_button_1_">
</g>
</svg>
