<?xml version="1.0" encoding="utf-8"?>
<!-- Generator: Adobe Illustrator 18.1.1, SVG Export Plug-In . SVG Version: 6.00 Build 0)  -->
<svg version="1.1" id="Layer_1" xmlns="http://www.w3.org/2000/svg" xmlns:xlink="http://www.w3.org/1999/xlink" x="0px" y="0px"
	 viewBox="643 322 519.1 79.4" enable-background="new 643 322 519.1 79.4" xml:space="preserve">
<g id="Layer_2" display="none" opacity="0.22">
</g>
<g id="Layer_1_1_">
</g>
<g id="Layer_6">
</g>
<path fill="#CCD6EA" d="M1085.2,331.5c-73.2-9.4-147.5-11.9-221.3-7.2c-36.9,2.5-73.5,7.5-109.5,13.9c-17.7,3.1-36.6,6.7-53.8,12.5
	c-8.3,2.8-16.4,6.4-24.1,10.3c-4.4,2.2-9.2,4.2-13.3,7.2c-4.2,3.1-6.7,7.8-11.6,10c-7.2,3.1-3.3,15,3.9,14.4
	c6.7-0.6,13.6,3.9,20.5,4.4c8.6,0.6,17.2,0.6,25.8,0.3c18-0.6,36.6-3.3,54.6-5.3c35.8-3.9,71.8-6.1,107.6-7.2
	c71-2.2,142,2.2,212.2,14.1c20.2,3.3,39.7-6.4,42.7-28.6C1121.8,348.1,1105.4,334.3,1085.2,331.5z"/>
<g>
	<path fill="#4F76A4" d="M660.9,330.1h48c5.8,0,10.8,4.7,10.8,10.8v48c0,5.8-4.7,10.8-10.8,10.8h-48c-5.8,0-10.8-4.7-10.8-10.8v-48
		C650,335.1,655,330.1,660.9,330.1L660.9,330.1z"/>
	<path fill="#FFFFFF" d="M700.5,365.3c0,0,6.1-8.3,6.7-11.1c0.3-1.1-0.3-1.7-1.4-1.7c0,0-3.3,0-5.3,0c-1.1,0-1.7,0.6-1.9,1.4
		c0,0-2.8,6.1-6.1,9.7c-1.1,1.1-1.7,1.7-2.2,1.7s-0.8-0.3-0.8-1.4v-9.7c0-1.4-0.3-1.7-1.4-1.7h-8.3c-0.6,0-1.1,0.3-1.1,0.8
		c0,1.4,1.9,1.7,1.9,5v7.2c0,1.4,0,1.9-0.8,1.9c-1.7,0-6.1-6.1-8.3-13c-0.6-1.4-1.1-1.9-2.2-1.9h-5.3c-0.8,0-1.4,0.6-1.4,1.4
		c0,1.4,1.7,7.8,8,16.4c4.2,5.8,10,8.9,15,8.9c3.1,0,3.9-0.6,3.9-1.9v-4.4c0-1.1,0.6-1.7,1.1-1.7c0.8,0,1.9,0.3,5,3.1
		c3.6,3.3,3.6,4.7,5.5,4.7h5.8c0.6,0,1.1-0.3,1.1-1.4c0-1.4-1.7-3.6-4.4-6.4c-1.1-1.4-2.8-3.1-3.3-3.6
		C699.7,366.7,700,366.5,700.5,365.3z"/>
</g>
<g id="Language_x5F_button">
</g>
<g id="Language_x5F_button_1_">
</g>
</svg>
