<?xml version="1.0" encoding="utf-8"?>
<!-- Generator: Adobe Illustrator 18.1.1, SVG Export Plug-In . SVG Version: 6.00 Build 0)  -->
<svg version="1.1" id="Layer_1" xmlns="http://www.w3.org/2000/svg" xmlns:xlink="http://www.w3.org/1999/xlink" x="0px" y="0px"
	 viewBox="102.4 274 508.8 313.5" enable-background="new 102.4 274 508.8 313.5" xml:space="preserve">
<g id="Layer_2" display="none" opacity="0.22">
</g>
<g id="Layer_1_1_">
</g>
<g id="Layer_6">
</g>
<path fill="#FFE295" d="M586.8,477.7c28-26.9,29.7-71.3,15.8-105.7c-36.9-90.4-156.1-96.2-238.8-89.6c-26.3,2.2-52.7,5.5-78.8,10
	c-14.1,2.2-28,5.5-41,11.1c-6.4,0.8-12.5,1.4-18.9,2.5c-18.3,2.8-37.2,8.3-47.4,25c-9.2,14.7-7.5,34.7,4.7,46.9
	c4.2,3.9,8.9,6.7,13.9,7.8c1.7,7.5,4.7,14.4,8.9,20.2c-9.2,1.9-18.3,4.7-26.6,8c-19.4,7.5-39.1,17.5-49.6,36.6
	c-4.7,8.3-6.4,17.5-5.8,26.3c-6.7,6.9-11.9,14.7-15,24.1c-11.6,36.1,16.9,64.6,48.3,76c28.3,10.3,60.5,7.2,89.9,5.8
	c32.4-1.7,64.9-4.2,97.3-7.2c76.8-7.8,153.4-19.1,229.1-34.9c19.4-3.9,30.5-26.9,25.5-45.2C596.5,488.2,592.4,482.1,586.8,477.7z"/>
<g id="Language_x5F_button">
</g>
<g id="Language_x5F_button_1_">
</g>
</svg>
