<?xml version="1.0" encoding="utf-8"?>
<!-- Generator: Adobe Illustrator 18.1.1, SVG Export Plug-In . SVG Version: 6.00 Build 0)  -->
<svg version="1.1" xmlns="http://www.w3.org/2000/svg" xmlns:xlink="http://www.w3.org/1999/xlink" x="0px" y="0px"
	 viewBox="0 0 705.8 258.7" enable-background="new 0 0 705.8 258.7" xml:space="preserve">
<g id="Layer_2" display="none" opacity="0.22">
</g>
<g id="Layer_1">
</g>
<g id="Layer_6">
</g>
<g id="Layer_7">
	<path fill="#60A6D3" d="M704.7,163.8c-18.2-34.5-104.1-62-112-65.3C577.3,92,391.4,66.1,367.6,67.2c-22.1,1-45.5,2.5-66.8,9.4
		c-7.7,2.5-18.2,7.4-26.8,14.1c-11.3,4.3-21.9,11.3-25.1,23c-2.1,7.9,0.2,17.1,6.9,22c3.6,2.6,12.4,7,38.5,3.3
		c26.1-3.7,109.6-8.8,141.3-9.2c31.3-0.4,62.6,0.4,93.8,2.5c29.5,2,59.2,4.7,88.3,9.8c26.6,4.7,53.9,12.5,73,32.7
		C698,182.4,709.3,172.5,704.7,163.8z"/>
	<path fill="#FFE295" d="M628.3,61.4c-15.3-20.9-38.6-34.2-63.2-41.5C530.8,9.8,494.4,4.7,459.3,0.1c-5.1-0.7-9.6,4.9-9.6,9.6
		c0,5.7,4.4,8.9,9.6,9.6c4.2,0.5,8.4,1,12.7,1.4c-0.2,1.8,0.2,3.7,1.3,5.4c0.1,0.1,0.1,0.2,0.2,0.3c-12.4-1.6-24.8-2.9-37-4.1
		c-3.3-0.3-5.7,1.3-7.1,3.7c-4.3-0.1-8.5-0.2-12.8-0.4c-9.3-1.4-18.7-2.6-28.1-3.7c-5-0.6-8,3.3-8.5,7.5
		c-46.3-7.9-92.4-15.9-138.9-6.1C83.7,56.4,50.5,105.3,33,127.6c-11.3,14.3-44.1,70.8-11.8,110.6c18.6,23,43.5,15.8,60.2,12.6
		c19-3.6,35.1-14,46.4-28c-6.5,5.6-14.1,9.8-22.5,10.9c-8,1-16.1,0.7-24.2-0.3c-4.8,1.1-9.9,1.8-15.1,1.9c1.6,3.7-0.2,8.7-5.2,8.4
		c-11.4-0.8-29.4-5.4-24.4-20.8c0.4-1.1,0.9-1.9,1.6-2.6c-2.7-11.9-4.6-24.2-2.2-36.2c2.3-11.5-0.6-14,14.8-31.3
		s43.6-33.7,66.8-45.6c22.3-11.4,104.8-36.8,118.3-39c26.5-4.4,53.5-6,80.3-4.5c27.8,4,55.2,10.8,82,19.2c9.3,2.9,14.4-8.8,8.9-15.3
		c-0.1-0.1-0.2-0.2-0.2-0.3c21.2,2.2,42.3,5.3,63.3,9c3,0.5,5.5-0.2,7.5-1.6c19,4.2,37.8,9.3,56.5,15c5.9,1.8,11.4-3.6,11.7-9
		c2.4,0.7,4.7,1.5,7.1,2.3c5.5,1.8,9.8-1.9,11.1-6.4c4.2,2.2,35.4,28.1,42.2,31.7c12.1,6.4,29.4,5.5,33.9-9.8
		C643.5,85.9,635.5,71.3,628.3,61.4z"/>
	<path fill="#A4BDE4" d="M638,104c-24-18.3-54-26.7-83.4-31.2c-8.2-1.2-48.5-4.1-48.5-4.1c4.7-16.8-338.6-47.4-453.8,63.7
		c-8.2,8-16.1,16.3-22.6,25.5c0.1,10.8-0.7,21.7,3.1,31.8c0.6,1.5,1.2,3,1.8,4.4c0.4-3,1.3-6,2.4-9c0.8-0.2,1.7-0.2,2.4-0.3
		c1.2-1.2,2.9-2,5.1-2c3.1,0,5.2,1.5,6.3,3.6c0.8,0.2,1.6,0.5,2.4,1c5.2-8.5,15-9.9,24.1-7.2c3.2-4.5,8.9-7,15.2-7.8
		c-0.5-0.4-1.1-0.8-1.6-1.3c-3.9-3.4-6.4-7.6-7.6-12.2c1.2-9.5,7.6-15.6,15.2-17.7c0.2,0.7,0.4,1.5,0.3,2.3c0.5-0.2,1-0.4,1.5-0.5
		c1.1-0.2,2.3-0.2,3.1-1.1c0-0.5-0.2-1-0.5-1.4c-1.1-3-0.1-5.6,1.9-7.2c0,0,0.1,0,0.1,0c4.8-1.2,8.8-0.3,12,2
		c0.4,0.8,0.8,1.6,1.2,2.3c6.4-1.9,13.1-2.8,19.4-4.8c-0.4-1.5-0.3-3.2,0.6-4.5c9.6-13.8,28.5-17.9,43.5-23
		c9.6-3.2,86.6-25.4,99-8.7c1.7,2.3,3.2,4.8,3.4,7.6c40.1-5.1,80.4-8.9,120.8-10.3c53.6-1.8,108.8,3.4,162,9.2
		c15.7,1.7,35.8,5.9,59.6,11.5C650.2,120.4,645.5,109.7,638,104z"/>
	<path fill="#6B85BA" d="M598.2,99.5c-39.2-4.1-78.4-8.6-117.7-12c-38.7-3.4-77.5-3.7-116.2-0.3c-22,1.9-43.9,4.9-65.6,9
		c-8.6,1.6-5.1,14,3.6,13.2c129.7-12.6,191.3-7,229.4-3c22.2,2.3,44.3,4.6,66.5,6.9C606.9,114.1,606.9,100.4,598.2,99.5z"/>
	<path fill="#84CFED" d="M664,229.9c-59.2-15.2-120.4-21.7-181.4-21.8c-61.1-0.2-121.7,5.9-182.3,13.1c-17.3,2.1-34.6,4-51.9,6
		c-8,1-16,1.7-23.9,3.3c-8.2,1.6-15.9,4.2-23.7,7.2c-2,0.8-1.2,3.9,0.9,3.2c14.3-4.4,30-5.1,44.9-6.6c14.8-1.5,29.6-3,44.4-4.3
		c29.7-2.8,59.5-4.6,89.3-5.9c60-2.5,120-3.2,179.9,2.8c33.7,3.4,67.1,9.1,99.9,17.6C669.3,246.9,673.4,232.3,664,229.9z"/>
	<path fill="#A4BDE4" d="M631.1,104C634.3,106.4,605.4,84.4,631.1,104L631.1,104z"/>
	<path d="M618.6,227.4C618.5,227.4,618.5,227.5,618.6,227.4C618.6,227.5,618.6,227.4,618.6,227.4z"/>
	<path d="M123,233.6c-0.1,0-0.2,0-0.3,0c-0.1,0-0.1,0.1,0,0.1c0.1,0,0.2,0,0.3,0C123.1,233.8,123.1,233.6,123,233.6z"/>
	<g>
		<path stroke="#000000" stroke-width="0.25" stroke-miterlimit="10" d="M250.5,106.6c-11.7,2.2-23.3,5-34.7,8.3
			c-3,0.9-5.2,1.8-8.2,2.7c0.6-3.2,1-6.1,2-11c0.5-2.4-3.5-3.2-4.4,0.1c-1.4,5.6-1.7,6.9-3.1,12.5c-18.6,6.8-34.9,13.1-50.3,23.3
			c-1,0.6-0.3,2,0.8,1.3c19-11.2,32.2-16.6,48.3-22c-1,4.2-2.9,13.6-4,17.7c-3,11.6-5.9,23.1-8.9,34.8c-2.8,11-10.2,47.8-17.8,57.3
			c-4.3,5.3-12.2,6.6-15.8,3.2c-4.1-3.7-4.8-3.4-2.7-0.6c2.1,2.8,5.5,4.2,8.1,4.2c22.9-0.1,27.8-33.7,32.2-52.7
			c3.1-13.4,6.1-26.8,9-40.2c1.4-6.6,4-18.4,5.7-25c3.8-1.2,11.7-3.7,12.7-4c-2.3,10.6-5.7,27-7.6,37.8c-2.1,12-10.2,59.4-2.8,65.9
			c8,7,17.1-4.1,23-8.8c3-2.4-0.4-1.6-3.4,0.8c-2,1.6-10,9.7-12.4,7.7c-2.5-1.9-3.9-12.3-3.5-20.8c0.4-9.6,6.4-60.2,13.2-84.8
			c8.2-2.2,15.3-3.5,23.7-5.1c10.9-2.2,33.6-4.6,33.6-5.5C283.2,101.6,260.8,104.6,250.5,106.6z"/>
		<path stroke="#000000" stroke-width="0.25" stroke-miterlimit="10" d="M265.9,169.5c-2.7,0.4-2.1,5.1,0.7,4.9
			c6.8-0.6,3.3,13.9,1.5,19.8c-1.9,6.4-8.3,18.3-15.3,19.8c-12.3,2.7-9.1-18.4-7.6-25.6c1.6-7.3,4.8-15,11.7-18.4
			c1.2-0.6,0.4-1.2-0.9-0.8c-11.3,3.5-16.8,15.6-18.2,26.5c-0.7,5.4-1,10.7,2.6,15.3c3,3.8,8.1,5.1,12.7,4.4
			c10.9-1.8,18.8-13.3,21.1-23.3C275.7,185.6,276.5,168,265.9,169.5z"/>
		<path stroke="#000000" stroke-width="0.25" stroke-miterlimit="10" d="M330.4,196.4c-2.8,2.6-6.8,10.8-11,7
			c-2.1-1.9-3.2-9.4-2.9-13.3c0.3-4,1.5-10.7,2.5-14.7c2.1-3.4,3.4-6.9,3.4-10.1c0-1.9-2.6-2.6-3.6-0.9c-1.6,2.7-3.4,8.2-4.5,11.3
			c-4.9,7.3-11.2,14.2-20.6,11.2c1.1-5.8,2.5-13,3-18.8c0.2-2.7-3.9-3.1-4.6-0.6c-3.6,12.4-5.7,25.9-6.9,38.8
			c-0.4,4.1,4.7,3.5,5.2-0.4c0.8-5.8,1.9-11.6,3.1-17.3c5.8,2.3,12.8-0.3,18.5-5c-0.8,5.5-0.5,11.1,1.3,16.3c4,11.4,16,5.9,20.7-1.6
			C335.4,195.8,332.4,194.5,330.4,196.4z"/>
		<path stroke="#000000" stroke-width="0.25" stroke-miterlimit="10" d="M377.6,163.3c0.6-3.3-4.4-4-5.2-0.7
			c-1.4,5.8-2.2,8.8-3.6,15.3c-0.2,1-1.1,4.2-2.5,6.6c-3.8,6.4-13.2,16.1-16.7,17c-4.3,1.1-3.2-9.5-2.6-13.5
			c1.1-7.8,3.1-16.4,4.9-24c0.7-2.9-3.6-5-5-2.1c-2.6,5.6-14.5,47.6,1.2,42.2c7.3-2.5,13.8-10.6,18.5-16.3c0.3-0.4,1.1-1.5,1.4-1.9
			c0,2.6-0.2,5.9,0.1,8.2c0.6,4.5,2.6,7.9,7.4,8.6c5.1,0.8,8.8-2.6,11.5-6.5c1.4-2-0.6-3.7-2.6-2.5c-1.1,0.7-4.3,6.2-5.6,6.7
			c-4.8,1.8-5.5-3.2-5.9-7.7C372.4,187.8,375.1,176,377.6,163.3z"/>
		<path stroke="#000000" stroke-width="0.25" stroke-miterlimit="10" d="M560.4,163.6c-5.8-4.6-16.6-3.1-20.2,3.1
			c-0.4-2.3-1.7-4.1-3.4-5.5c-2.3-1.8-6.4-1.3-8.2,0.1c-0.9,0.7-0.5,1.7,0.6,1.2c0.4-0.1,2.8-1.6,4.3-0.1c3.5,3.4,1.1,11.2,0.4,16
			c-0.8,5.3-4.1,22.8-4.1,22.8c-3.5-2.1-5.3-0.8-3.5,0.4c0.7,0.5,2.5,1.2,3.2,1.7c-3.2,20.3-11.2,48.2-21.6,48.8
			c-1.8,0.1-3.6-0.6-5.4-2.4c-0.9-0.9-2.3-3.8-3.4-3.1c-2.1,1.4,1.8,5.8,5.1,7.1c4.3,1.7,9.6,0.4,12.7-2.6c8-7.7,12.8-18.7,18-45.7
			c4.8,2,10.7,2.8,15.8,1c8.2-2.9,14.2-11.7,15.6-19.8C568.2,176.7,566.6,168.5,560.4,163.6z M560.1,188.9
			c-2.4,8-8.1,14.6-13.3,15.5c-5.2,0.9-8.2,0.3-11.5-1.3c0,0,3.7-20.8,5-27.8c0.7-3.8,1.4-6.6,2.4-8.4c2.4-4,9.9-5.4,13.3-2.5
			C562,169.4,562.5,181.1,560.1,188.9z"/>
		<path stroke="#000000" stroke-width="0.25" stroke-miterlimit="10" d="M466.7,193.8c-4.7,6.3-10.2,10.4-17.5,6.9
			c-3.4-1.6-5.8-11.4-3.8-17.5c9.8,0.5,25.3-3.5,25.9-14.7c0.4-6.9-4.1-10.7-9.4-10.6c-5.6,0.1-11.7,3.4-15.1,7.3
			c-7.1,8.2-12.1,24.9-3.1,33.7c8.8,8.5,18.6,6.1,26.1-2.7C472,193.7,468.4,191.5,466.7,193.8z M464.1,160c6.8,0.5,2.3,11.3,1,13.5
			c-3.4,5.7-11.7,8.4-19.2,7.8C446.4,179.1,453,159.1,464.1,160z"/>
		<path stroke="#000000" stroke-width="0.25" stroke-miterlimit="10" d="M528.4,128.3c-3.3,8.5-14.1,7.5-22.5,11.9
			c-5.7,3-9.4,6.6-13.3,11.7c-6.5,8.5-10.6,19.5-10.5,33.4c0.1,13.8,5.3,20.4,17.5,19.1c11.6-1.2,20.5-17.5,20.7-28.6
			c0.2-12.8-8.6-17.4-15.4-17.1c-6.8,0.3-12.1,4.6-15.7,10.3c0.2-0.6,0.3-1.1,0.5-1.7c2.5-7.2,6.4-13.6,12-18.8
			c6.6-6.2,11.7-6.4,18.1-9.3c4.9-2.3,9.4-5.4,11-10.7C531.4,126,529.4,125.8,528.4,128.3z M488.7,178.4
			c1.9-8.6,11.2-21.4,21.4-16.9c4.4,2,5.7,10.7,4.7,16c-1.4,7.3-5.6,18.5-11.7,23.1c-4.9,3.6-11.5,3.5-14.1-3.1
			C487.1,192.9,486.6,187.7,488.7,178.4z"/>
		<path stroke="#000000" stroke-width="0.25" stroke-miterlimit="10" d="M426.3,162.3c-6.6-6.3-16.4-3.9-21.3,2.4
			c-0.2,0.2-0.6,0.1-0.6-0.2c-0.1-3-0.9-6-3.5-7c-1.8-0.7-5-1-7.6,0.6c-1.4,0.8-0.4,1.6,1,1c5.8-2.5,4.7,11.1,4.3,13.1
			c-0.6,3.5-4.6,48.4-12.9,67c-1.9,4.2-5.2,10.3-11.2,10.6c-3.9,0.2-6.1-2.8-6.8-5.6c-0.5-2.1-2.2-1.9-2,0c0.7,9,9.6,9.9,16,5.9
			c10-6.2,13-19.3,15.1-29.9c0.5-2.2,2.4-14.4,2.9-16.7c4.2,1.8,10.5,3,15.3,1.3c8.6-3.1,13.5-10.3,15.6-19.3
			C432.4,178.3,432.1,167.8,426.3,162.3z M424.9,185.8c-2.3,14.2-15.5,20.9-24.8,15.6c0.9-8.1,2.4-14.2,3.3-23.7
			c0-0.2,0.2-2.1,0.5-4.3c0.2-1.4,0.6-5.7,2.3-7.7c5.2-6.2,13-5,16.5,0C426.2,170.6,425.8,180.4,424.9,185.8z"/>
		<path stroke="#000000" stroke-width="0.25" stroke-miterlimit="10" d="M627,201.5c-2.5,4.1-5.8,7.2-9,7.5c-5.7,0.5-7-6.9-6.9-10.9
			c0.3-8.1,3.7-20,6.6-27.6c1.1-2.9-2.5-4.6-4.1-2.2c-3.4,5.2-6.7,14.6-10.3,19.7c-3.3,4.6-9.4,15.4-15.4,18.1
			c-8.5,3.7-6.2-11.2-5.6-16.1c0.9-7.4,3.7-15.2,5.4-22.6c0.5-2.3-2.4-3.6-3.7-1.6c-4.5,7-7.6,19.9-8.5,28.6
			c-0.6,5.6,0.5,12.4,7,13.7c6.8,1.4,12-4.3,15.7-9.1c2.8-3.7,5.9-8.9,8.6-12.6c-0.3,1.2-0.9,3.9-1.1,5.1c-0.9,5.2-1.5,10,1.1,15
			c4.1,7.6,15.6,6.1,21.1-3.8C628.8,201.3,627.8,200.3,627,201.5z"/>
		<path stroke="#000000" stroke-width="0.25" stroke-miterlimit="10" d="M699.1,199.7c-0.8-1.1-3.8-1.1-5.3,0.7
			c-0.8,0.9-0.1,1.7,1.4,1.8c2.6,0.2-4,10.6-15.3,13.6c-9.1,2.5-14.5-4.9-17.6-13.1c-1.4-3.7-4-7.8-8.6-9.4
			c-1.1-0.4-3.9-0.7-5.2-0.7c1.3-0.7,7.4-4.3,11.5-9.2c1.4-1.7,6.6-7.7,8.9-8.8c4.5-2.1,9.9-0.6,10.2,5.1c0.2,2.7,4.5,2.1,4.7-0.7
			c0.6-7.7-7.3-9.9-15-6.9c-5,2-8.5,7.4-10.8,9.9c-4.7,4.9-12.1,10.4-17.2,10.6c0.5-5.7,3.6-16.1,4.5-20c0.6-3-2.1-4-3.3-2.8
			c-2.8,2.9-6.1,16.7-6.9,21.4c-1.5,8.6-2.5,16-2.6,21.3c-0.1,3.4,4.3,3.9,5.1,0.8c1.2-4.5,1.8-10.9,3-18.5c4.9-0.7,8.6,0.1,11.4,2
			c3.5,2.4,3.8,8.2,5.1,11c2.3,5.2,6.6,9.6,12.3,11.1c11.7,3,24-5.3,29.2-15.5C698.9,202.5,699.9,200.8,699.1,199.7z"/>
	</g>
	<g>
		<path fill="#6B85BA" d="M137.5,174.3c0-0.3,0-0.7-0.1-1.2c-0.4-7.1-0.8-8.4-1.5-8.7c-1-0.4-2.9,1.1-5.4,3.1
			c-0.6,0.5-1,0.9-1.4,1.1c-0.1,0.1-0.4,0.3-0.7,0.5c-2.7,1.8-5.2,3.6-5.7,4.8c-0.6,1.3-0.6,3.4-0.7,5.2c0,0.4,0,0.7,0,1
			c-0.6,13.6-10.4,28.6-17,33c-6.8,4.5-13.4,5.1-18.9,5.1c-0.8,0-1.6,0-2.5,0c-1.9-0.1-3.3-0.2-4.3-0.3c-1.6-0.1-2.2-0.2-2.7,0.2
			c-0.4,0.3-0.4,0.7-0.3,1.2c0,0.8,0.1,1.7-1.4,2.2c-0.6,0.2-1.2,0.4-1.9,0.6c-3.1,1-7.3,2.4-11.2,5.5c-2.2,1.8-2.9,3.4-3.7,5
			c-0.6,1.4-1.3,2.8-2.9,4.4c-0.4,0.5-2.1,1.3-3.4,1.6c-0.6,0.2-1.3,0.2-2,0.2c-1,0-2-0.2-2.8-0.6c-1.4-0.7-2.2-2.1-2.1-3.8
			c0-1.2,0.3-1.8,0.4-2.1c0.1-0.2,0.4-0.7-0.2-1.1c-0.1,0-0.2-0.1-0.3-0.1c-0.5,0-1.6,0.8-4.4,3.2c-0.7,0.6-1.3,1.1-1.5,1.3
			c-0.4,0.2-0.7,0.6-0.7,1c0,0.4,0.3,0.8,0.6,1c2.5,2,5.4,3.3,7.4,4.1c5.6,2.1,17.5,4.6,25.1,4.7c1.2,0,2.4,0,3.6,0
			c22.3,0,49.3-4.5,59.5-39.7C136.5,199.6,138.2,185.5,137.5,174.3z"/>
		<path fill="#CAC7C7" d="M122,179.5c-0.4-1.6-3.3-1-5.2-0.8c-1.5,0.2-2.1,0.1-3,0.9c-2.9,2.8-11.1,8-11.7,8.5
			c-2.3-3.9-5.4-6.2-10.5-6.1c-4.6,0-14.5,1.8-13.2,7.1c-0.5,0.2-4.6,2.2-4.9,2.5c-2.9-3.2-8.5-6.2-12.8-5.2
			c-4.2,1-6.7,5.6-7.2,10.2c-3-3.5-9.5-6-13.3-6.4c-8.4-0.9-13.1,2.7-14.1,4.9c-1,2.1-2.2,6.1,0.7,7.9c3.3,2.1,11.4-3.1,22.8,1.3
			c1.8,0.7,4.5,2.2,6.4,2.8c0.5,0.5,2.9-0.3,3.4-0.6c-0.3,0.6-0.8,1-0.2,1.4c-0.7,2.8-0.9,8,0.7,6.8c3.4-2.5,14.7-9.2,16-11.1
			c2.4-1.5,4.8-3,7.2-4.5c2.1-1.3,5.4-2.7,7-4.9c0.9,0.5,1.8,1.1,2.7,1.6c-2.6,1.8-5.1,3.7-7.5,5.6c-2.2,1.4-4.4,2.9-6.5,4.6
			c-4.3,2.1-8.4,4.8-12,8.1c-0.4,0.3-14.7,11.3-15.1,11.7c-3.5,2.5-8,5-6.6,9.8c0.7,2.4,3.4,4,6.4,3c5.9-2,6.4-7,9.4-10.3
			c4.2-4.7,10.9-5.4,14-7.1c2-1.1,1.9-2.3,1.6-4.4c12,2.4,20.4-0.8,22.5-1.6c9.2-3.7,14.6-12.2,16.8-15.6
			C118,196.3,122.5,181.4,122,179.5z"/>
		<g>
			<g>
				<path fill="#203449" d="M108.5,134.8c0-0.4,0-1-0.1-1.5c0-0.9,0-1.8-0.2-2.3l0-0.1l-0.1,0c-0.3-0.1-6.8-3.3-9.3-3.9
					c-1-0.2-2.5,0.3-2.8,1.3c-0.3,1.1-0.6,2.6-0.9,3.8c-0.1,0.5-0.2,1-0.3,1.3c-0.5-0.1-0.9,0-1.4-0.2c-1.5-0.4-3.2-0.7-4.5-0.7
					c-1.1,0-1.7-0.1-2.3,0.5c-1.1,0.9-1.1,2.1-1.2,3.2c0,0.3,0,0.5-0.1,0.8c-0.2,2.4-0.5,4.5,0,7.3c-1.7,1.4-7,5.8-10.3,9.4
					c-0.6,0.7-0.8,1.6-0.5,2.3c0.2,0.5,0.7,0.8,1.3,0.8l0.1,0c11-0.5,29.6-12.9,30.3-13.4c0.7-0.3,3.1-2.4,2.9-3.5
					C109,139.8,108.6,136,108.5,134.8z"/>
				<path fill="#203449" d="M124.3,127.6c-0.4-0.5-1.2-0.9-2-0.9c-0.1,0-0.3,0-0.4,0c-4,0.6-7.6,3-7.6,3l-0.2,0.1l0.1,0.2
					c1.1,1.7,4.1,5.5,4.1,5.6l0.2,0.2l0.2-0.2c0.4-0.3,0.8-0.7,1.2-1.1c1.9-1.6,4-3.3,4.6-5.3C124.8,128.5,124.5,127.9,124.3,127.6z
					"/>
			</g>
		</g>
		<path fill="#CAC7C7" d="M121.2,149.5c-1.1-3.3-1.6-10.3-2.9-13.4c-1.1-2.5-3.6-6.5-6-8.1c-2.2-1.5-3.9-0.9-4,1.3
			c-0.4,8.8,1.7,12.4,2.1,15.4c0.6,3.5,0.8,5.9,0.6,6.4c-0.1,0-2-0.1-5.2-1.7c0,0,0.3,1.8,1.4,2.6c-0.2-0.3-2,0.1-5.1-2.4
			c-1.5,3.3-3,6.2-6.2,8.9c-0.4,0.2-1.3,0.7-1.5,1.2c-0.9,2.2-2.1,6.7-2.1,9.1c0,2.5,7,6.9,12.7,6.3c0.1,0.4,1.2,1.9,3.1,1.3
			c1.3-0.4,5.7-1.4,6.9-2c0,0,8.1-5.5,8.4-7.1c0.3-1.6-0.9-1.4-0.9-4.1c0-1.9,0.8-4.9,0.9-6.8C123.8,153.1,122.3,152.6,121.2,149.5z
			"/>
		<g>
			<path fill="#6B85BA" d="M51.5,115.5c-7-0.5-14-0.4-21,0c-4.3,0.3-9.4-0.5-11.4,3.8c-1,2.3-4.1,8.5-4.1,9.4c0,2,10.4,0.8,10.4,0.8
				c-0.8,2.4-4,6.6-4.4,9.2c-0.2,1.1,6,0.9,8,1.2c-12.9,34.1-12.2,50.9-9.8,62.6c1.7,8,4.5,15.6,9.2,22.3c0.4,0.6,2.5,4.6,3.6,4.2
				c0.5-0.2,0-1.4,0-1.7c-0.3-2.6-1.8-4.3-1.2-7.2c0.4-2.1,1.6-3.4,2.8-5.1c1-1.5,1.2-3.4,2.2-4.9c2.8-4.1,8-4.7,12.5-4.5
				c1,0,3.9,0.7,3.3-1c-0.4-1.1-4.1-1.8-5-2c-4.9-1.2-9.3-0.1-14.1,0.7c-1.7,0.3-4.3,0.8-5.7-0.5c-1.9-1.7-1.4-4.9-0.5-6.9
				c1.6-4,6-5.7,10-6c1.5-0.1,4.1,0.8,4.7-1c0.4-1.2-2.7-9.8-2.8-19.1c-0.1-7.5,3.4-28.7,12.9-49.8
				C51.4,119.3,53.9,115.7,51.5,115.5C48.4,115.3,51.7,115.5,51.5,115.5z"/>
			<path fill="#6B85BA" d="M142.8,126.4c-1.1-2.8-3-6.2-4.3-8.5l-0.2-0.3c-0.7-1.1-1.1-1.8-1.4-2c-0.4-0.2-0.5-0.2-1.2-0.3
				c-0.2,0-0.5,0-0.9-0.1c-6-0.7-18.4-1-25.3-1c-0.2,0-0.7,0-1,0.4c-0.3,0.4-0.1,0.9,0.1,1.3c0.3,0.7,1.5,2.7,2.5,4.7
				c0.9,1.7,1.8,3.3,2.1,3.9l0.1,0.2c1.5,2.8,1.8,3.5,1.9,3.6l0.1,0.3h0.4c0.1,0,0.2,0,0.6-0.2l0.2-0.1c1.1-0.4,3.9-1.5,5.8-1.5
				c0.6,0,1,0.1,1.2,0.3c0.3,0.3,0.5,0.7,0.5,1.2c-0.1,2.1-3.6,5.2-5.5,6.9l0.3,0.8c0.1,0,1.4,0.2,2.5,1.7c2.1,3,2.3,5.1,2.4,6.4
				c0.1,0.6,0.1,1.1,0.3,1.5l0.5,1l0.4-1c0-0.1,0.1-0.2,0.1-0.2c0.6-0.1,1.5,1.1,2.2,3c1.4,3.6,1.3,7.8-0.2,12.4
				c-0.1,0.4-0.1,1,0,1.5l0,0.2c0,0.4-0.4,0.9-0.7,1.3c-0.3,0.5-0.6,0.8-0.4,1.2c0.1,0.2,0.3,0.4,0.5,0.4c0.3,0,0.6-0.2,1-0.5
				c0.2-0.1,0.3-0.3,0.5-0.4c1.7-1.1,5.6-4.1,6-4.8c1-1.7,0.7-3.6-0.3-7.5c-1.1-4.6-2-7.6-4-12c-0.1-0.4-0.2-0.9-0.2-1
				c0,0,0.2-0.2,1.1-0.2c0.1,0,0.2,0,0.4,0l0.1,0c0.6,0,1.4,0,2.3,0.1c1.3,0.1,2.7,0.1,3.5,0.1c0.3,0,0.7,0,0.9-0.3
				c0.2-0.3,0.1-0.7,0-0.9c-0.2-0.6-1.3-2.4-2.4-4.4c-0.9-1.5-1.7-2.9-2-3.5c0-0.1-0.1-0.2-0.1-0.3c-0.4-0.8-0.6-1.3-0.6-1.4
				c0,0,0.1-0.1,0.6-0.1c0.1,0,0.3,0,0.4,0l0.2,0c1.2,0,2.3,0,3.2,0l2.5,0c0.8,0,1.6,0,2.4,0c0.4,0,0.7-0.1,0.9-0.4
				C143.2,127.7,143.1,127,142.8,126.4z"/>
		</g>
		<g>
			<path fill="#203449" d="M113.9,174.6c-0.5,0.1-1.2,0.3-2,0.6c-1.5,0.5-3.4,1.1-4.6,1.1c-0.2,0-0.4,0-0.6-0.1
				c-0.4-0.1-0.7-0.3-1.1-0.6c-0.2-0.1-0.3-0.2-0.5-0.4c-0.2-0.1-0.5-0.2-0.9-0.2c-0.3,0-0.7,0-1,0.1l-0.2,0c-0.2,0-0.3,0.2-0.4,0.3
				c-0.1,0.2-0.2,0.3-0.5,0.5c-0.3,0.1-0.4,0.2-0.5,0.4c-0.1,0.1-0.1,0.1-0.2,0.2c-0.6,0.5-0.6,1.1-0.4,1.7c0.1,0.2,0.2,0.4,0.6,0.7
				c0.1,0.1,0.3,0.3,0.3,0.4c-0.2,0.1-0.5,0.2-0.7,0.2c-0.1,0-0.2,0.1-0.3,0.1l-0.1,0c-0.9,0.3-2.1,0.7-2.7,2.3
				c-0.3,0.8,0.6,1.7,1.2,2.1c0.3,0.2,0.6,0.7,0.9,1c0.4,0.5,0.6,0.7,0.8,0.7l0.1,0c0.3-0.1,3.7-2.8,4.3-3.4
				c0.4-0.4,2.6-2.1,4.6-3.7c2.1-1.6,4-3.2,4.5-3.6c0.2-0.2,0.2-0.4,0.2-0.5C114.5,174.7,114.2,174.6,113.9,174.6z"/>
			<path fill="#203449" d="M121.4,174.2c-0.5-0.1-1,0.3-1.8,1c-0.4,0.3-0.8,0.7-1.4,1.2c-0.1,0.1-0.3,0.2-0.5,0.3
				c-1.3,0.8-2,1.2-2.1,1.6c0,0.1,0,0.2,0,0.3c0.1,0.2,0.4,0.3,0.8,0.3c0.6,0,1.3-0.1,2-0.2c0.3,0,0.6-0.1,0.8-0.1c0.3,0,0.6,0,1,0
				c0.2,0,0.4,0,0.6,0c0.5,0,0.8-0.2,0.8-0.6C121.7,178,122.3,174.4,121.4,174.2z"/>
		</g>
		<g>
			<path fill="#5667A4" d="M125.8,162.5c-0.2,0.2-0.4,0.3-0.7,0.4c3.1-3.6,3.1-10.6,1.4-14.9c-0.3-0.7-0.7-1.6-1.2-1.9
				c-0.1,0-0.1,0-0.2,0c-0.3,0-0.5,0.4-0.5,0.8c0,1.3-0.3,2.4-0.6,3.4c0,0,0,0-0.1,0c0.4-4.2-0.2-11.7-4.6-13.7
				c-0.2-0.1-0.5,0-0.6,0.2c-0.1,0.1-0.1,0.3-0.1,0.4c0.3,1,0.5,2,0.5,2.2c0.2,0.9,0.5,2.2,0.8,3.5c0.2,1,0.5,2.1,0.6,2.9
				c0.1,0.4,0.1,0.7,0.2,1.1c0.2,1.2,0.4,2.5,1,3.6c0.1,0.2,0.2,0.5,0.4,0.7c0.4,0.7,0.8,1.6,1,2.1c0.4,1.3,0.5,2.6,0.2,4.4
				c-0.1,0.6-0.2,1.2-0.3,1.7c-0.4,1.7-0.7,3.5-0.3,5.3c0.1,0.4,0.3,0.8,0.5,1.1c0.2,0.3,0.3,0.5,0.4,0.8l0,0.1
				c0,0.1,0.1,0.3,0.2,0.3h0c0.1,0,0.2-0.1,0.3-0.2c0.1-0.2,0.3-0.3,0.6-0.5c0.3-0.3,0.7-0.6,0.9-0.9c0.4-0.7,0.7-1.5,0.9-2.3
				c0-0.1,0-0.3-0.1-0.4C126.4,162.4,126.1,162.4,125.8,162.5z"/>
			<path fill="#5667A4" d="M109.3,142.3c-0.1-0.3-0.4-0.4-0.6-0.2c-5,4-10.8,7-16.5,10c-3,1.6-5.7,2.8-8.3,3.7
				c-0.2,0.1-0.3,0.3-0.3,0.4c0.4,1.9,0.9,3.9,1.9,5.2c0.1,0.2,0.4,0.2,0.6,0c0.1-0.1,0.1-0.2,0.1-0.3c-0.1-0.8,0-1.6,0-2.2
				c0,0,0,0,0,0l0.1,0.4c0.4,2.7,0.8,6.4,3.3,7.8c0.1,0,0.1,0.1,0.2,0.1c0.1,0,0.3-0.1,0.3-0.2c2.9-3.9,4.3-7.6,4.7-12.3
				c0-0.1,0.1-0.1,0.1-0.1c0,0,0.1,0,0.1,0.1c0.1,1.1,0.1,2.3-0.1,3.5c0,0.1,0,0.2,0.1,0.3c0.1,0.2,0.4,0.2,0.6,0l0.1,0
				c1-1,2.2-2.1,3.1-3.3c1.6-2.2,2.4-3.9,3.1-5.9c0-0.1,0.1-0.2,0.2-0.2c0,0,0.1,0,0.1,0c0.7,0.7,1.8,1.7,3,2.3c0,0,0.5,0.2,0.8,0.2
				c0.1,0,0.2,0,0.3-0.1c0.2-0.2,0-0.4-0.2-0.6c-0.1-0.2-0.3-0.4-0.5-0.7c-0.4-0.7-0.6-1.4-0.7-1.9c0.4,0.4,3.1,2.4,5.4,2.7
				c0.3,0,0.5-0.1,0.5-0.4c0.2-2-0.4-4.1-1-6.2C109.7,143.7,109.5,143,109.3,142.3z"/>
		</g>
		<path fill="#5667A4" d="M58.8,215.3c-1-2.6-1-5.4-0.1-7.6c0.1-0.1,0-0.3,0-0.4c-0.1-0.2-0.3-0.2-0.5-0.2c-1,0.4-2.5,0.2-4-0.5
			c-0.3-0.1-0.6-0.3-0.9-0.5c-0.3-0.2-0.6-0.4-1-0.5l-0.2,0l0,0c-0.8,0.1-1.6,0.1-2.5,0.1c-0.6,0-1.2,0-1.7,0c-0.5,0-1.1,0-1.6,0
			c-1.1,0-2.5,0.1-4.1,0.5c-2.8,0.8-7.2,3.3-7.5,6.7c0,0.1,0,0.3,0.1,0.4c0.1,0.2,0.4,0.2,0.6,0.1c2.5-1.7,5.6-2.7,8.6-3
			c-1,0.4-2,0.7-3,1c-3.4,1.1-6.6,2.1-8.8,5.5c-3.4,5.1-0.3,11.2,3.4,14.9c0.1,0.1,0.2,0.1,0.3,0.1c0.1,0,0.2,0,0.3-0.1
			c7.4-5.4,9.9-8.4,11-9.9c0.2-0.2,0.3-0.3,0.4-0.5c-0.2,0.5-0.5,1.1-1,1.8c-0.1,0.1-0.1,0.3,0,0.5c0.1,0.2,0.4,0.3,0.7,0.2l1.8-1.3
			c2.1-1.5,4.4-3,6.5-4.5l3.1-2.2C58.8,215.7,58.9,215.5,58.8,215.3z"/>
		<g opacity="0.3">
			<path fill="#153D8A" d="M136.3,164.6c-3.3,0.5-5.9,2.6-8.3,4.8c-1.2,1-2.3,2-3.4,3.1c-0.5,0.5-1.6,1.2-1.8,1.9
				c-0.1-1.5-2.1,0.2-2.6,0.5c-1.1,0.8-2.3,1.6-3.4,2.3c-0.6,0.4-2.1,1.3-0.7,1.9c0.8,0.4,2.3-0.3,3.1-0.3c0.9,0,1.8,0.6,2.7,0.2
				c-0.5,5.7-1.5,10.7-3.9,15.8c-1.1,2.4-2.3,4.7-3.7,6.9c-1.6,2.4-2.6,5-4.9,6.9c-7.9,6.6-18,11-28.4,9.5c-0.9-0.1-2-0.6-2.9-0.4
				c-1,0.3-0.9,0.6-1.4,1.3c-0.1,0.1-0.1,0.2-0.2,0.4c0,0.4-0.2,0.5-0.7,0.3c-0.6,0.2-1.3,0.3-1.9,0.4c-1.5,0.3-2.9,0.8-4.3,1.4
				c-5.1,2-9.6,5.3-13,9.6c-1.5,1.9-2.9,4.4-4.9,5.7c-2.6,1.7-7-1.7-4.3-5.4c0.8-1.1,2-1.9,3.1-2.8c2.3-2,4.7-3.9,7.1-5.7
				c4.9-3.6,9.9-7.1,14.8-10.6c4.7-3.4,9.4-7.5,14.5-10.2c0.8-0.4,2.2-1.3,3.1-1.2c0.9,0.1,2.4,1.3,3.1,1.9c1,0.7,2.2,1.7,3,2.7
				c0.8,0.9,1.3,1.8,2.4,2.6c1.2,0.9,2.2,2.4,3.8,2.2c2.1-0.1,3.9-1.2,5.4-2.6c1.5-1.4,2.6-3.1,3.5-4.9c0.7-1.4,2.3-4.2,2-5.8
				c-0.1-0.6-0.6-1.2-1.2-0.7c-0.4,0.3-0.6,2.2-0.7,2.7c-0.8,2.3-1.9,4.6-3.5,6.5c-1.3,1.5-3.6,3.2-5.8,2.5c-1.2-0.4-2.3-1.9-3-2.9
				c-0.8-1.1-1.9-2-2.7-3.2c-0.4-0.5-0.7-1-1.1-1.4c-0.1-0.1-0.3-0.3-0.4-0.4c-0.4-0.1-0.5-0.4-0.4-0.8c-0.4-0.7-1-1.7-1.8-2.1
				c-2-1.1-4.8,1.8-6.4,2.8c-0.5,0.3-1,0.6-1.5,0.9c-0.8,0.5-1,1.1-1.5,1.7c-1.1,1.2-2.9,2.1-4.2,3c-2.9,2.1-5.8,4.1-8.7,6.2
				c-5.5,3.9-11,7.7-16.3,11.8c-2.6,2-5.1,4.2-7.5,6.4c-1.2,1.1-2.5,2.4-4,3.3c-1.4,0.8-4.3,1.9-4,3.9c0.4,2.8,3.5,0.3,4.5-0.6
				c2.4,4.3,8.1,6,12.3,3.6c2.2-1.2,3.8-3.6,5.4-5.5c1.6-1.9,3.2-3.6,5.3-4.9c4-2.6,9.2-2.7,13-5.6c0.4-0.3,0.9-0.7,1.2-1.1
				c0.2-0.2,0.7-1.2,0.8-1.3c0.4-0.2,2.6,0.7,3.3,0.8c2.9,0.4,5.9,0.1,8.8-0.4c9.8-1.9,17.7-7.2,23.1-15.6c5.1-8,8.8-16.9,10.3-26.4
				c0.5-3.2,1.6-8.1,4.4-10.1c1-0.7,2.3-1.1,3.5-1.5c0.7-0.2,2.6-0.3,2.9-0.9c0.2-0.4-0.2-1.9-0.4-2.3c-0.4-0.7-0.5-0.7-1.2-0.5
				C135.8,164.7,136.7,164.5,136.3,164.6C134.6,164.9,137.1,164.5,136.3,164.6z"/>
			<path fill="#153D8A" d="M59,207.8c-0.1-0.3-0.4-0.5-0.8-0.4c-0.5,0.2-1,0.3-1.5,0.4c-0.8-0.1-1.4-0.4-2-0.9
				c-0.1-0.1-0.2-0.2-0.4-0.2c-0.8-0.5-1.6-0.9-2.4-1.4c0,0,0-0.1-0.1-0.1c0-0.1,0-0.1-0.1-0.2c0,0,0-0.1-0.1-0.1
				c-0.1-0.3-0.4-0.5-0.7-0.5c-2.6-1.7-5.7-1.9-8.8-1.6c-0.1,0-0.3,0-0.4,0.1c0,0-0.1-0.1-0.1-0.1c-3.7-0.7-7.7,0-11.6,0.5
				c-0.1,0-0.2,0-0.2,0c-0.2,0-0.3,0-0.4,0.1c-0.3,0-0.6,0.1-0.9,0.1c-0.7-0.2-1.3-0.3-2-0.5c0,0-0.1,0-0.1,0
				c-0.1-0.1-0.1-0.2-0.2-0.3c-0.3-0.6-0.4-1.2-0.2-2c0.1-0.9-1.2-1.3-1.4-0.4c-0.1,0.6-0.1,1.1,0,1.6c0,0.1-0.1,0.2-0.1,0.3
				c-0.1,1.9,1.3,3.2,2.9,4c2.8,1.4,7.4,1.9,4.5,6.2c-1.7,2.5-3.5,4.4-4,7.5c-0.2,1.5-0.4,3.2,0.8,4.3c0.2,0.9,0.7,1.8,1.3,2.6
				c0.4,0.6,1.2,0.3,1.3-0.2c0.1,0.1,0.1,0.3,0.2,0.4c0.3,0.9,0.9,1.8,1.7,2.6c-0.2,0.4-0.1,0.8,0.4,0.9c-0.5,0.4-0.1,1.2,0.5,1.2
				c-0.3,0.5,0.4,1.3,1,0.9c1.7-1.2,3.3-2.5,4.8-3.9c0.1-0.1,0.1-0.1,0.2-0.2c1.2-0.9,2.3-1.7,3.4-2.5c0.9-0.6,1.8-1.2,2.7-1.8
				c3.7-1.3,6.7-3.7,9.7-6.4c0.1-0.1,0.1-0.1,0.2-0.2c0.8-0.3,1.4-0.6,2-1.1c0.2-0.1,0.4-0.3,0.5-0.5c0.4-0.4,0.2-0.9-0.2-1.1
				c0.1-0.1,0.1-0.3,0.2-0.5c0.5-1.6-0.8-3.5-0.5-5c0.1-0.2,0.1-0.3,0.2-0.5c0.2-0.1,0.4-0.2,0.5-0.3
				C59.3,208.6,59.3,208.1,59,207.8z M31,225.5c-0.2-0.5-0.4-1-0.6-1.5c0-0.1,0-0.2,0-0.3c-0.6-1.9-0.1-3.6,0.7-5.3
				c-0.1,0.4-0.2,0.9-0.2,1.4C30.4,221.7,30.4,223.7,31,225.5z M33.7,214.1c0.1-0.1,0.1-0.2,0.2-0.3c0.2,0,0.3-0.1,0.5-0.2
				c1.3-1.6,2.7-2.9,4.3-3.9c1.2-0.5,2.6-0.9,4.1-0.9c0.6,0,1.3-0.1,1.9-0.2l3.5,0.2c-2.7,0.6-5.2,1.4-7.6,2.7c-0.1,0-0.3,0-0.4,0
				c-2.5,0.9-5.7,2.4-7.6,4.5C33,215.3,33.4,214.7,33.7,214.1z M35.2,227.6c-1.4-1.8-1.9-4.1-1.1-6.4c0.9-2.6,3.5-4.5,5.8-5.8
				c2.1-1.3,4.4-2,6.7-2.5c-2.2,1.2-4.3,2.7-6,4.2c-0.5,0.5-1,1-1.5,1.5c-2.5,2.2-4.3,5.3-3.8,8.4C35.2,227.3,35.2,227.4,35.2,227.6
				z M47.9,217.2c-3,4-6.3,7.5-10.5,10c0.4-1.3,0.9-2.5,1.5-3.6c1.1-1.6,2.5-3.1,3.8-4.3c1.5-1.4,3.2-2.5,4.9-3.5
				c0.7-0.3,1.4-0.7,2.1-1C49.1,215.6,48.5,216.4,47.9,217.2z"/>
			<path fill="#153D8A" d="M129.3,158.5c0.6-2.9,0.5-6-0.4-8.9c-0.6-1.9-1.5-4.8-3.5-5.2c0.2-1.9-0.1-3.6-1-5.2
				c-0.2-0.8-0.6-1.5-0.9-2.2c-0.1-1.5,0.1-2.9,0.7-4.3c1.2-1.1,1.7-2.7,1.3-4.4c-0.1-0.5-0.7-0.6-1-0.4c-0.3,0.1-0.5,0.3-0.5,0.7
				c0,0.5,0,0.9,0,1.4c0,0.1,0,0.2,0.1,0.3c0,0-0.1,0.1-0.1,0.1c-0.9,0.7-1.7,1.5-2.6,2.2c-0.3,0.2-0.3,0.6-0.1,0.8
				c-0.5,0.4-0.8,0.9-1,1.4c-0.1,0-0.3,0-0.4,0c-0.5,0-0.8,0.5-0.7,0.9c-0.2,0.1-0.4,0.3-0.4,0.6c0,0.5,0,1,0.1,1.5
				c-0.1,0.3-0.1,0.6,0,0.9c-0.1-0.2-0.2-0.5-0.3-0.7c-0.2-0.8-0.5-1.6-0.9-2.3c0,0,0,0,0,0c-0.7-2-1.6-4-3-5.7
				c-0.9-1.2-2.5-3-4.2-2.6c-1.5,0.3-2,1.9-2.2,3.2c0,0.3,0,0.5,0.2,0.6c-0.3,0.2-0.4,0.7,0,0.9c3.6,2.8,5.1,6.2,6.5,10.4
				c0.2,0.5,0.3,0.9,0.5,1.3c0.3,2.1,2.7,3.4,5.1,4c0,0.2,0.1,0.4,0.2,0.5c1.1,3.3,3.3,6.2,2.1,9.6c-1.3,3.7-1.3,7.3,0.5,9.7
				c0.5,0.6,1.5,0.3,1.3-0.5c-0.5-2.1-0.5-4.3-0.4-6.5c0.2-0.6,0.4-1.2,0.5-1.9c0.6-2.1,0.1-3.4-0.5-5.5c-0.8-2.6-2-5.3-2.7-7.9
				c-0.4-1.3-0.3-6.3-0.2-7.1c0-0.1,0.1-0.1,0.1-0.2l0.2,0.2c0.3,0.7,0.7,1.3,1.2,1.9c0,0.1,0.1,0.1,0.2,0.1c0.3,1,0.7,2.1,1,3.1
				c0,0.1,0.1,0.1,0.1,0.2c0,0.4-0.1,0.9-0.1,1.4c-0.1,0.6,0.3,1,0.9,0.9c2.3-0.4,3.3,6.2,3.5,7.6c0.1,1.3,0.1,2.6-0.1,3.9
				c-0.2,0.1-0.3,0.3-0.3,0.6c0,0.8-0.1,1.5-0.3,2.2c-0.2,0.2-0.3,0.4-0.3,0.7c0.1,0.5,0.1,1,0.1,1.5c-0.1,0.8-0.4,1.5-1,2.2
				c-0.6,0.7,0.3,1.6,1,1c0.2-0.2,0.4-0.4,0.7-0.5c0.1-0.1,0.1-0.1,0.1-0.2c0,0,0,0,0.1,0C130.3,164.2,129.6,160.5,129.3,158.5z"/>
			<path fill="#153D8A" d="M111.8,149.1c-0.3-1.3-0.7-2.6-1-3.8c-0.1-0.3-0.3-0.4-0.5-0.5c-0.2-1.1-0.5-2.1-0.8-3.2
				c-0.1-0.5-0.8-0.7-1.2-0.3c-0.8,0.7-1.6,1.4-2.4,2c-0.8,0.2-1.6,0.6-2.2,1.1c-0.9,0.5-1.6,1.1-2.3,1.8c-1.7,1-3.3,2-5,3
				c-0.2,0.1-0.3,0.2-0.5,0.3c0,0-0.1,0-0.1,0.1c-1.5,0.9-3,1.8-4.5,2.9c-0.1,0-0.2,0-0.4,0c-1.8,0.5-3.5,1.2-5,2.3
				c-0.3-0.3-0.9-0.3-1.2,0.1c-0.1,0.2-0.2,0.5-0.4,0.7c-0.1,0-0.1,0.1-0.2,0.1c-0.5,0.5-0.6,0.6-0.5,1.4c0,0.3,0.3,0.5,0.5,0.6
				c0.2,1.1,0.5,2.2,0.9,3.3c0.3,0.8,1.7,0.5,1.4-0.4c-0.1-0.2-0.1-0.4-0.2-0.6c0.3-0.1,0.5-0.3,0.5-0.7c0-0.3,0-0.5,0-0.8
				c2.6-3.3,6-5.6,9.5-7.8c0.1,0,0.2,0,0.3-0.1c1.7,0.2,2.4,1,1.8,2.3c-0.2,0.6-0.4,1.2-0.8,1.8c-0.7,1.2-1.6,2.2-2.7,3
				c-0.3,0.2-0.3,0.5-0.3,0.7c-0.1,0.1-0.2,0.1-0.3,0.2c-0.8,0.4-0.1,1.6,0.7,1.2c3.3-1.7,6.9-3.7,8.1-7.3c1.1,0.6,2.3,1,3.7,1
				c0,0,0.1,0,0.1,0c0.1,0,0.1,0,0.2,0c0,0,0.1,0,0.1,0c0.6,0.1,1.1,0,1.5-0.3c0.2-0.2,0.3-0.5,0.3-0.9c0.8,0.1,1.5,0.2,2.3,0.2
				c0.3,0,0.6-0.2,0.7-0.5C112.3,151,112.1,150.1,111.8,149.1z M103.9,148.9c-0.4-1-0.5-1.7,0-2.5c0.6-0.4,1.3-0.8,1.9-1.2
				c0.3-0.1,0.6-0.1,0.8-0.1c0.8,0.4,1.4,1,1.8,1.9c0,0.1,0.1,0.1,0.1,0.1c0.3,1,0.7,2,1.2,3c-0.3,0-0.6-0.1-0.9-0.2
				c-0.8-0.2-1.5-0.6-2.3-1.2c-0.5-0.4-1.4,0-1.2,0.7c0.1,0.2,0.1,0.4,0.2,0.6c-0.1,0.1-0.2,0.3-0.2,0.5c0,0.1,0,0.2,0,0.3
				c-0.1-0.1-0.2-0.1-0.3-0.2C104.5,150.2,104.2,149.6,103.9,148.9z"/>
		</g>
		<path d="M106.9,157.7c-1.5,0.9-2.3,2.6-3.4,3.9c-1.2,1.3-2.7,2.4-4.1,3.5c-0.2,0.2-0.1,0.3,0.2,0.2c1.5-0.7,2.9-1.7,4.3-2.8
			c1.4-1.1,3.2-2.6,3.5-4.4C107.4,157.8,107.1,157.6,106.9,157.7z"/>
		<path d="M96.3,170.1c-0.1,0.2-0.1,0.4-0.2,0.6c-0.1,0.4,0.6,0.6,0.6,0.2c0-0.2,0-0.5,0.1-0.7C96.9,169.9,96.4,169.8,96.3,170.1z"
			/>
		<path d="M111.6,134.4c-0.1-0.1-0.3,0-0.2,0.2c2.2,3.3,2.9,6.6,3.8,10.4c0.1,0.3,0.6,0.3,0.6-0.1
			C115.2,141.3,114.2,137,111.6,134.4z"/>
		<path d="M155.7,145.6c-0.2-0.1-0.8-0.1-1.8,0.4c-0.5,0.2-13.2,8.3-17.8,11.5c-0.1,0.1-0.3,0-0.3-0.1c-1.3-5.7-3.6-12.6-5.8-17.2
			c-0.1-0.1,0.1-0.4,0.3-0.5c1.7-0.2,7,0.2,8,0.1c0.5,0,0.3-0.7,0.2-0.9c-0.4-0.8-3.7-6.7-4.7-8.6c-0.2-0.4-0.2-0.8,0-0.9
			c0.9-0.3,8.4-0.1,10.3-0.1c0.4,0,0.3-0.5,0.2-0.6c-1.8-6-6.1-12.4-6.4-12.8c-0.3-0.4-0.4-0.4-1.2-0.5c-4.2-0.5-22.5-1.6-28.8-1.3
			c-0.4,0-0.7,0.4-0.5,0.8c1.1,2.3,2,3.9,2.8,5.4c0.5,0.9,4.7,8.5,4.7,8.5c-0.2,0.1-0.5,0.3-0.6,0.5c0,0,0,0,0,0
			c-0.7-0.8-1.7-1.6-2.4-2c-0.6-0.3-1.7-0.8-2.7-0.3c-1,0.4-1.5,2.6-1.6,3.5c0,0.1,0,0.1,0,0.2c-2-0.9-3.9-1.7-5.9-2.6
			c-1.2-0.5-2.6-1.3-4-1.1c-2.8,0.3-2.9,4.2-3.3,6.5c0,0,0,0,0,0c-2.2-0.6-4.9-1.2-7-0.9c-1.8,0.3-2.2,1.6-2.3,3.2
			c-0.2,2.7-0.4,5.8-0.1,8.6c0,0.1,0,0.2-0.1,0.2c-2.8,1.7-5.4,4.2-7.7,6.4c-1.1,1.1-3.2,3.1-3.5,4.2c-0.4,1.2,0.2,1.9,0.8,2.1
			c0.9,0.3,5,0.1,7.8-0.8c0.2-0.1,0.4-0.1,0.6-0.2c0.1,0,0.3,0,0.3,0.2c0.1,1.3,0.6,2.5,1.1,3.7c0.4,1,0.9,1.9,1.8,2.6
			c0,0,0.1,0.1,0.1,0.1c0.4,2.2,1.5,4.4,3.5,5.1c0.3,0.1,0.5-0.1,0.5-0.3c0.8-0.7,1.8-2.3,2.5-3.3c0,0,0,0,0,0
			c-0.1,1.6-1.4,4.4-1,5.4c0.9,2.3,4.6,4.4,6.7,5.2c1,0.4,2.1,0.6,3.3,0.7c0.2,0,0.3,0.3,0.1,0.4c-0.5,0.3-1,0.7-1.3,1.1
			c-0.5,0.8-0.2,1.4,0.3,2.1c0.2,0.2,0.1,0.3-0.1,0.4c-0.2,0.1-0.4,0.2-0.6,0.3c-0.6,0.3-1.2,0.6-1.7,1.2c-0.3,0.3-0.8,1-0.8,1.7
			c0,0.2-0.1,0.2-0.3,0.2c-0.2,0-0.4-0.1-0.6-0.2c-0.3-0.1-7.1-2.1-13.1,0.2c-1.8,0.7-4.6,1.9-5.7,3.7c-0.4,0.6-0.6,1.6-0.3,2.1
			c0.1,0.1,0,0.3-0.1,0.3c-1.4,0.4-2.7,1.1-3.8,2c-0.1,0.1-0.2,0.1-0.3,0c-3.3-3.3-8.8-6.2-13.4-4.8c-4.2,1.2-6.7,5.2-6.9,9.4
			c0,0.2-0.2,0.3-0.4,0.1c-2.6-2.8-6.5-4.5-10.4-5.4c-0.1,0-0.1-0.1-0.2-0.1c-11.9-30.3,10.7-73.6,10.9-74c0.2-0.5,0.1-1-0.5-1
			c-7.3-0.2-28.3,0.1-32.2,1.4c-0.3,0.1-0.6,0.3-0.7,0.6c-0.8,1.6-4.5,9.2-5.3,12.2c-0.2,0.7-0.2,1.1,0,1.1c0.3,0.1,0.7,0.1,1.3,0.1
			c2.3,0,6.4-0.3,8.3-0.4c0.2,0,0.3,0.2,0.2,0.3c-1.4,2.3-3.6,6.8-4,8.9c0,0.1,0.1,0.6,0.6,0.6c2.1,0.3,3.9,0.4,7,0.5
			c0.3,0,0.3,0.2,0.2,0.4c-3.3,9-12.5,30.5-11,51.5c1.9,25.7,16.1,39.7,17.7,41.2c0.1,0.1,0.2,0.1,0.3,0c2.4-1.9,2.5-1.9,5-3.8
			c5.5-3.9,11-7.8,16.5-11.6c11-7.8,21.9-15.5,32.9-23.3c0.1-0.1,0.2-0.1,0.3,0c0.3,0.3,0.6,0.6,0.9,0.9c0.2,0.2,0.3,0.3,0.4,0.5
			c-5.5,3.2-10.5,7.3-15.6,11.1c-5.4,4-10.7,7.9-16.1,11.9c-7.8,5.7-20.4,15.8-22.1,17.2c-0.1,0.1-0.1,0.2,0,0.3
			c5,5.3,21.4,10.9,42,10.6c69.8-1,60-71.4,57.6-84.1c0-0.1,0-0.2,0.1-0.2c3-2.2,11-7.9,13.7-10
			C151.6,152.4,158.9,146.8,155.7,145.6z M113.7,124.4c-0.7-1.3-4-7.5-4.7-8.7c-0.3-0.6-0.4-1,0.4-1c6.4,0,19.2,0.3,25.3,1
			c1.5,0.2,1.5,0.1,1.9,0.3c0.3,0.2,0.9,1.3,1.4,2.1c1.5,2.5,3.3,5.8,4.3,8.4c0.4,1,0.4,1.5-0.4,1.5c-2.5-0.1-5.3,0-8.1-0.1
			c-0.5,0-1.2-0.1-1.5,0.3c-0.3,0.5,0.5,1.7,0.7,2.2c0.7,1.4,3.9,6.8,4.3,7.9c0.2,0.5,0.1,0.5-0.4,0.5c-1.4,0-4.4-0.1-5.8-0.2
			c-0.7,0-1.8-0.1-2.1,0.4c-0.2,0.5,0.2,1.4,0.2,1.4c2.1,4.5,2.9,7.5,4,11.9c0.9,3.8,1.2,5.6,0.3,7.2c-0.3,0.6-3.9,3.4-5.9,4.7
			c-0.7,0.4-1.3,1-1.4,0.8c-0.2-0.4,1.2-1.4,1.2-2.4c0-0.5-0.1-1.2,0-1.5c1.4-4.2,1.8-8.6,0.2-12.7c-0.4-1-1.5-3.4-2.7-3.3
			c-0.3,0-0.5,0.5-0.5,0.5c-0.6-1.1,0.2-3.7-2.8-8c-1.2-1.7-2.8-1.9-2.8-1.9c2.8-2.5,7.3-6.5,5-8.8c-1.4-1.3-6.6,0.7-7.7,1.1
			c0,0-0.5,0.2-0.5,0.2C115.6,128.2,113.9,124.9,113.7,124.4z M125.3,162.9c0.2-0.1,0.5-0.3,0.7-0.4c0.2-0.2,0.6,0,0.5,0.3
			c-0.2,0.8-0.5,1.6-0.9,2.3c-0.3,0.5-1,1-1.4,1.4c-0.2,0.2-0.1,0.1-0.2-0.1c-0.2-0.6-0.8-1.1-0.9-1.8c-0.6-2.3,0.2-4.7,0.6-7
			c0.2-1.5,0.3-3-0.2-4.5c-0.3-0.8-1-2.1-1.4-2.9c-0.7-1.5-0.9-3.2-1.2-4.7c-0.4-1.8-1.1-4.8-1.4-6.4c0-0.2-0.3-1.3-0.5-2.2
			c-0.1-0.3,0.2-0.5,0.4-0.4c4.3,2,4.8,9.6,4.5,13.6c0,0.3,0.4,0.3,0.4,0.1c0.4-1,0.6-2.2,0.6-3.4c0-0.3,0.2-0.7,0.4-0.6
			c0.5,0.2,0.9,1.2,1.1,1.8c1.6,4,1.8,11-1.4,14.7C124.9,162.8,125.1,163,125.3,162.9z M123.3,127.6c1.1,1.2-0.3,3.2-0.8,3.6
			c-0.3,0.4-2.1,2.3-3,3.1c0,0-0.8,0.8-1.1,0.6c-0.4-0.3-1.4-2.9-3.5-4.9c0,0,0,0,0,0C115.8,129.1,122.3,126.5,123.3,127.6z
			 M82.7,155c-2.4,0.9-5.1,1.3-6.6,1.3c-0.6,0-1.2-0.3-1.2-0.8c0-0.4,0.4-1.1,0.6-1.4c2.9-3.4,6-6.4,9.7-9c0.4-0.2,0.4-0.5,0.4-0.7
			c-0.3-3.1-0.5-10.1,1.1-11c1.3-0.7,6.2,0.2,7.8,0.8c0.6,0.2,1.5,0.5,2.3,0.7c0.2,0,0.2-0.1,0.2-0.3c0-0.2-1.4-1-1.6-1.1
			c0,0,0,0,0,0c0.1-0.8,0.2-1.4,0.4-2.3c0.1-0.9,0.4-2.1,1.3-2.9c1.2-0.9,2-0.5,3.4,0.1c2.4,1,4.8,2.1,7.1,3.1c0,0,0,0,0,0
			c0.1,3,0.8,8,0.6,8.8c-0.3,1.2-12.9,8.6-14.6,9.5c0,0,0,0,0,0C91.1,151.4,86.1,153.6,82.7,155z M90.2,166.7
			c-0.1,0.1-0.2,0.1-0.3,0.1c-2.6-1.5-3-5.5-3.3-8.1c0-0.2-0.4-0.1-0.4,0.1c-0.1,0.7-0.1,1.4,0,2.3c0,0.2-0.3,0.3-0.4,0.2
			c-1.1-1.4-1.6-3.4-1.9-5.1c0-0.1,0-0.2,0.1-0.2c2.9-1,5.6-2.3,8.3-3.7c5.6-2.9,11.5-6,16.5-10c0.1-0.1,0.3,0,0.3,0.1
			c0.6,2.6,1.9,5.6,1.6,8.2c0,0.1-0.1,0.3-0.3,0.2c-2.2-0.3-4.9-2.2-5.3-2.7c-0.1-0.1-0.3,0-0.3,0.2c0.1,0.5,0.4,1.3,0.7,1.9
			c0.4,0.8,0.8,1,0.7,1.2c-0.1,0.2-0.7-0.1-0.9-0.2c-1.1-0.5-2.1-1.4-2.9-2.2c-0.1-0.2-0.5-0.1-0.6,0.3c-0.7,2.1-1.6,3.8-3.1,5.9
			c-0.8,1.2-2,2.3-3.1,3.3c-0.2,0.1-0.4,0-0.4-0.2c0.2-1.2,0.2-2.4,0.1-3.6c0-0.4-0.6-0.4-0.6,0C94.4,159.4,93,163,90.2,166.7z
			 M99.5,174.1c-2.2-0.7-5.2-2.3-6.4-4.4c-0.5-0.8-0.2-1.8,0.1-3.2c0.5-1.9,1.1-4.4,1.4-5.7c0,0,0,0,0,0c0.1-0.2,0.1-0.4,0.2-0.6
			c0,0,0-0.1,0.1-0.1c3.3-2.8,6-5.9,7.3-9.9c0.1-0.2,0.2-0.2,0.4-0.1c0.5,0.6,1.3,1.1,2,1.5c1.1,0.6,2.2,0.7,3.1,0.7
			c0.5,0,0.2-0.4-0.1-0.6c-0.5-0.4-1-0.9-1.5-1.6c-0.1-0.2,0-0.3,0.1-0.2c0.6,0.3,1.1,0.7,1.8,1c1.1,0.4,2.6,0.7,2.8,0.8
			c0.3,0,0.7-0.1,0.7-0.5c0.6-3.5-1-7.1-1.9-10.5c-0.1-0.4-1.3-5.9-1-11c0-0.7,0.2-1.3,0.5-1.8c0.1-0.1,0.4-0.3,0.6-0.3
			c0.5,0,1.3,0.5,1.9,1c5.3,4,6.8,9.6,7,10.8c0.1,0.8,0.9,3.6,1.1,4.4c0.7,2.5,0.5,4.8,1.6,7.2c0.7,1.6,1.6,3,1.5,4.8
			c0,1.7-0.6,3.3-0.8,4.9c-0.1,1.1-0.2,2.2-0.1,3.3c0.2,1.3,1.1,2.7,0.7,4c0,0,0,0.1-0.1,0.1c-2.7,2-5.3,4-8,6.1c0,0,0,0-0.1,0
			c-2.3,0.7-8,3.4-9.1,1.4c-0.1-0.1,0-0.3,0.2-0.3c3.6-0.7,7-2.6,8.8-5.3c0.1-0.2-0.2-0.5-0.4-0.3
			C110.9,173.3,104.5,175.8,99.5,174.1z M98.8,182.3c0.5-1.5,1.7-1.9,2.6-2.2c0.4-0.1,1.4-0.3,1.2-0.6c-0.2-0.3-1-0.8-1.4-1.1
			c-0.4-0.4,0.2-1.4,1.2-1.9c0.6-0.3,0.6-0.9,0.8-0.9c0.7-0.1,1.5-0.1,1.9,0.2c0.8,0.5,1.2,0.9,1.9,1.1c1.7,0.5,5.4-1.4,6.9-1.7
			c0.4-0.1,0.6,0.2,0.4,0.4c-0.9,0.8-8.1,6-9,6.8c-0.8,0.7-3.9,3.4-4.1,3.4c-0.2,0.1-1-1-1.6-1.5C98.6,183.6,98.6,182.9,98.8,182.3z
			 M30.6,226.7c-0.4-0.4-2.9-4.7-3.1-5.1c-1.8-3-3.8-7.3-4.6-9.6c-3.5-9.8-5.2-22.8-3.7-34.1c2.5-18.9,11.3-37.7,10.8-38.4
			c-0.5-0.7-8.4,0.1-8.6-0.5c-0.3-1.1,4.5-8.5,4.5-9c0-0.7-0.6-0.8-1.2-0.8c-0.4,0-7.3,0.3-7.8,0.4c-0.7,0.1-1.4,0-1.1-0.7
			c0.4-1.1,4.2-9.5,4.8-10.8c0.6-1.3,5.7-1.5,9.4-1.7c6.6-0.4,14.6-0.8,21.2-0.3c0.7,0,0.8,0.4,0.5,1c-1,2.1-3.2,6.5-4.7,10.1
			c-7.4,18.5-9.6,38.4-9.7,41.5c-0.1,3.5,0.8,12.9,2.6,19.6c0.2,0.7,0.7,1.6-1.1,1.3c-5-0.6-11.1,1.4-12.9,5.2c-1,2-2.3,5.4,0.2,8.4
			c1,1.2,3.7,1,5.1,0.9c2.2-0.2,6.2-1.3,11.8-0.9c4,0.3,8.5,1.7,8.1,2.1c-0.3,0.3-5.1-0.2-6.9-0.1c-1.8,0.2-5.6,1.8-7.2,3.3
			c-1.9,1.7-2.5,3.6-2.8,4.3c-0.6,1.4-1.4,2.3-2.6,3.9c-0.8,1.1-1.6,2.7-1.7,4.8c-0.1,1.6,0.3,3,0.7,4.2
			C30.8,226.2,31,227.1,30.6,226.7z M58.5,215.7c-1.1,0.8-2,1.4-3.1,2.2c-2.7,1.9-5.5,3.8-8.3,5.8c-0.2,0.1-0.4-0.1-0.3-0.3
			c0.5-0.7,1-1.4,1.2-2.2c0-0.1-0.1-0.3-0.3-0.1c-1,0.9-2.6,3.9-11.7,10.6c-0.1,0.1-0.2,0.1-0.3,0c-3.8-3.7-6.7-9.7-3.4-14.6
			c3-4.4,7.8-4.8,12.3-6.7c0.2-0.1,0.1-0.3-0.1-0.3c-3.1,0.1-6.5,1.2-9.3,3.1c-0.2,0.1-0.4,0-0.3-0.2c0.3-3.3,4.5-5.7,7.3-6.5
			c3.4-1,6-0.1,9.8-0.6c0,0,0.1,0,0.1,0c0.6,0.3,1.2,0.7,1.9,1c1.3,0.6,3,1,4.2,0.5c0.2-0.1,0.3,0.1,0.3,0.3c-1,2.4-0.8,5.3,0.1,7.7
			C58.6,215.5,58.6,215.6,58.5,215.7z M88.7,194.3c-9.7,6.8-19.1,13.5-28.8,20.4c-0.1,0.1-0.3,0-0.3-0.1c-1.1-4.4-0.1-9,3.7-12.3
			c3.4-3,8.5-3.7,12.9-3.7c0.2,0,0.2-0.4,0-0.4c-2.8,0.1-5.5-0.4-8.3,0.4c-2.3,0.7-4.5,2-6.1,3.8c-0.9,1-1.9,2.3-2.5,3.6l0,0
			c-2.3,2.9-6.6-1.1-9-2.1c-2.3-1-4.8-1.6-7.3-1.9c-2.5-0.3-5.1-0.2-7.6,0.2c-3.4,0.5-10,3.1-10.1-2.6c-0.1-7.2,7.6-9.3,13.4-8.9
			c8,0.5,11.1,3.8,14.7,6.3c0,0.2,0.3,0.2,0.3,0c0,0,0,0,0-0.1c0.1-0.1,0.1-0.2,0.1-0.3c1-4.5,1.9-9,7.4-10
			c4.3-0.8,8.8,1.7,11.8,4.6c0.1,0.1,0.1,0.2,0,0.3c-1.6,1.4-3,3.1-3.9,5c-0.1,0.2,0.1,0.4,0.3,0.2c2.8-3.4,4.9-5.2,8.7-7.3
			c0.3-0.2,0.8-0.2,1-0.1c1.5,0.4,7.1,2.5,9.7,4.6C88.9,194,88.9,194.2,88.7,194.3z M46.8,229.8C46.8,229.8,46.8,229.8,46.8,229.8
			c4.7-3.5,9.3-6.9,14-10.4c5.1-3.8,10.2-7.6,15.3-11.4c5.1-3.8,10.1-7.8,15.4-11.2c0.1-0.1,0.2,0,0.3,0c3,3.4,5.5,7.6,8.6,10.5
			c2,1.8,4.6,0.9,6.5-0.5c3.2-2.4,4.7-6.5,5.6-10.2c0.1-0.5-0.6-0.6-0.7-0.2c-1.4,4-2.6,8.3-6.6,10.5c-1.5,0.8-2.7,1.1-4,0
			c-0.9-0.7-1.9-2-2.6-2.9c-1.3-1.8-2.6-3.5-3.8-5.3c-1.9-2.6-3.8-5.1-6.5-6.8c-2.9-1.8-6.3-2.8-9.5-3.7c-0.1,0-0.2-0.1-0.2-0.2
			c-0.2-3.4,7-5.6,9.8-5.7c4.9-0.2,7.4,0.3,10,1.9c3.1,2.2,5.2,6.9,6.5,10.2c0.1,0.1,0.5,1.1,0.7,1.6c0.1,0.3,0.5,0.2,0.6-0.1
			c0.1-0.4,0.3-1.3,0.3-1.7c0.1-0.6,0.3-1.1,0.5-1.6c0.1-0.3,0.5-1.4,0.1-1.4c-0.3,0-0.5,0.2-0.7,0.5c-0.3,0.4-0.4,0.8-0.6,1.2
			c0,0.1-0.1,0.2-0.1,0.4c-0.8-1.8-1.7-3.5-2.8-5.1c-0.1-0.1,0-0.2,0.1-0.3c2.9-2.1,5.4-3.7,8-5.6c1.3-1,2.7-1.9,4-2.9
			c0,0,0.1,0,0.1,0c1.2-0.3,2.5-0.3,3.6-0.4c1.1-0.1,1.6,0.1,2.3,0.2c0.2,0,0.4,0,0.6,0c0.1,8-7.4,34.4-28.9,37.5
			c-5.7,0.8-10.1,0.7-15.8-0.2c-0.2,0-0.9-0.1-0.6,0.7c1,3.4-2.9,3.9-4.9,4.8c-1.5,0.7-3,1.4-4.4,2.2c-2.8,1.5-6.6,3.7-10.2,9.9
			c-3.5,6.2-10.1,4.9-10.8,1.8C45,233.5,45.5,231.7,46.8,229.8z M118.4,176.6c1.7-1.3,2.5-2.3,3-2.1c0.6,0.1,0.2,2.8,0.2,3.3
			c-0.1,0.8-1.5,0.4-2.4,0.5c-1.1,0.1-2.7,0.5-3,0.1C115.9,177.9,118,176.8,118.4,176.6z M134.1,206.6c-9.8,33.8-34.8,40-62.6,39.3
			c-7.6-0.2-19.4-2.6-25-4.7c-1.5-0.6-4.6-1.8-7.3-4c-0.6-0.5-0.5-0.8,0.1-1.2c0.8-0.5,5.2-4.6,5.7-4.3s-0.4,0.4-0.5,2.7
			c0,1.7,0.7,3.4,2.4,4.3c1.7,0.9,3.8,0.7,5,0.4c1.3-0.3,3.1-1.2,3.6-1.8c3.5-3.6,2.7-6.1,6.6-9.4c4.6-3.8,9.7-4.9,13-6.1
			c2.6-0.9,1.4-3.1,1.9-3.5c0.7-0.5,2,0,6.7,0.2c6.9,0.2,14.2-0.2,21.7-5.2c6.8-4.5,16.6-19.8,17.2-33.4c0.1-1.6,0-4.4,0.7-6
			c0.6-1.4,5.4-4.4,6.3-5c1.4-1,5.2-4.6,6.3-4.1c0.8,0.3,1.1,7.3,1.2,9.4C137.9,185.5,136.2,199.5,134.1,206.6z M154.8,148.6
			c-1.5,1.7-4.3,3.9-7.5,6.3c-2.1,1.6-13.9,9.8-18.6,13.2c-4.5,3.3-9.1,6.6-13.6,9.9c-4.1,3-8.9,5.8-12.6,9.3
			c-0.1,0.1-0.2,0.1-0.3,0c-0.1-0.2-1-0.7-0.9-1.1c8.7-6.9,17.8-14.3,26.7-20.9c8.8-6.5,26.1-18.4,26.9-18.7
			C155.5,146.3,156.2,147,154.8,148.6z"/>
		<path fill="#14387F" d="M113.8,174.8c-0.2,0.1-6.5,3.5-9,0.6c-0.7-0.3-1.6,0-2.4,0.4c-0.1,0-0.2,0.1-0.2,0.2
			c-0.6,0.3-1,0.7-1.3,1.3c-0.5,1.4,0,2.1,0.9,2.5c-0.5,0-1,0.1-1.5,0.3c-0.1,0.1-0.3,0.1-0.4,0.2c-0.1,0-0.2,0-0.3,0.1
			c-1.3,0.9-1.7,2.4-0.7,3.7c0.2,0.3,0.5,0.3,0.8,0.3c0.3,0.5,0.6,0.9,0.8,1.4c0.4,0.8,1.6,0.1,1.2-0.7c-0.3-0.6-1.3-1.7-1.5-2.6
			c0-0.2,0.1-0.4,0.1-0.7c0,0,0-0.1,0.1-0.1c1.1-0.6,3.2-0.5,3.6-0.5c0.8,0,1.5-0.1,2.3-0.2c1.4-0.2,1.2-0.4,2.4-1.1
			c0.4-0.2,1.8-0.9,1.6-1.3c0.5-0.3,2.8-2.2,3.3-2.6c0.5-0.4,0.8-0.8,0.8-0.8C114.5,175.3,114.6,174.5,113.8,174.8z M104.4,177.4
			c0.5,0.1,0.9,0.3,1.4,0.5c0.4,0.3,0.9,0.6,1.3,0.7c0.1,0,0.3,0.1,0.4,0.1c-1.1,0.1-2.2,0.2-3.2,0.2c-0.3,0-0.7,0-1,0
			C102.1,178.9,102.5,178.4,104.4,177.4z"/>
		<path fill="#14387F" d="M108.3,132c0-0.3-6.4-5.1-9.9-5.3c-4-0.3-4.1,3.3-3.9,6.4c0,0.3,0.1,0.6,0.3,0.8c-1.1-0.2-2.8-0.8-3.3-0.9
			c-1-0.1-4.1-0.1-4.5,0c-0.6,0-0.7,1.3-0.1,1.3c1.8,0,3.5,0.2,5.3,0.6c1.2,0.3,2.4,0.9,3.6,0.9c1.9,0,1.6-1.8,1.7-3.3
			c0.2-0.7,0.4-1.2,0.6-1.2c2.6,0,8.4,3.2,9,3.6C109.1,136,108.5,132.1,108.3,132z"/>
		<path fill="#14387F" d="M124.1,128.4c0-0.3,0-0.6-0.2-0.9c-0.7-1-1.9-0.7-2.9-0.4c-0.1,0-0.2,0.1-0.3,0.2c0,0,0,0,0,0
			c-2,0.4-3.9,1.3-5.6,2.3c-0.5,0.3-0.1,1,0.4,0.9c0,0.1,0.1,0.3,0.2,0.5c0.3,0.6,0.9,1.1,1.3,1.7c0.4,0.6,0.8,1.3,1.1,2
			c0,0,0,0.1,0.1,0.1c-0.3,0.5,0.5,0.9,0.8,0.4c0.3-0.5,0.7-0.9,1.1-1.4c0.7-0.3,1.2-0.8,1.6-1.3c0.6-0.5,1.1-1.1,1.5-1.7
			c0.4-0.5,0.8-0.9,0.9-1.5C124.2,129,124.2,128.7,124.1,128.4z M120,128.9c-0.1-0.1-0.2-0.2-0.3-0.2c0.2-0.1,0.4-0.1,0.7-0.2
			C120.3,128.6,120.1,128.7,120,128.9z"/>
	</g>
</g>
<g id="Language_x5F_button">
</g>
</svg>
