<?xml version="1.0" encoding="utf-8"?>
<!-- Generator: Adobe Illustrator 18.1.1, SVG Export Plug-In . SVG Version: 6.00 Build 0)  -->
<svg version="1.1" xmlns="http://www.w3.org/2000/svg" xmlns:xlink="http://www.w3.org/1999/xlink" x="0px" y="0px"
	 viewBox="0 0 250.9 213" enable-background="new 0 0 250.9 213" xml:space="preserve">
<g id="Layer_2" display="none" opacity="0.22">
</g>
<g id="Layer_1">
</g>
<g id="Layer_6">
</g>
<g id="Layer_7">
</g>
<g id="Language_x5F_button">
	<g>
		<path fill="#FFFFFF" d="M212.3,99.3c-2-21.4-23.7-35.3-29.8-35.9c-0.5-0.1-2.9-0.6-3.5-0.6c-4.9-2.2-31.8-4.5-30.3-4.1
			c-0.3-0.1,7.4-13.1,9.6-14.6c2.3-1.6,6-7.2,6.5-10.2c2.4-15.2-17.4-23.4-30.6-21.4c-13.9,2.1-27.3,12.4-26,26.7
			c0.6,6.3,3.8,11.9,9.2,15.5c-0.1,0.3-0.3,0.6-0.4,0.9c-16.4,1.7-32,8.7-42.8,20.9C59.5,93,54.5,116.1,62.4,136.5
			c7.8,20.2,26.6,36.8,49.5,40.5c22.8,3.7,50.2,0,69.1-13.3c10.2-7.2,18.1-17.1,23.2-28.3c0.9-1.1,1.7-2.3,2.3-3.5
			C212,122.3,213.4,110,212.3,99.3z M137.8,45.2c-4.5-0.4-8.4,1.7-13,0.2c-4-1.3-7.4-4.6-8.4-8.5c-2.5-9.8,12.2-16,20.6-16.5
			c10.2-0.6,14.9,7.3,17.3,15.3c2.1,7.3-6,9.2-12.9,10.9C140.4,45.9,139.1,45.3,137.8,45.2z"/>
		<path fill="#84CFED" d="M121.2,51.5c-3.8-0.8-7.1-2.5-11-3c-4.1-0.5-8-0.2-12,0.4C90,50.1,82.5,52.7,75.3,57
			C61.2,65.4,50,77.4,43.9,92.8c-11.4,29.1,0.6,63.6,24.2,82.9c6.4,5.2,13.4,9.2,21.1,12.2c7.5,3,16.9,5.3,24.5,1.6
			c3.7-1.8,4.5-7.8,1.4-10.5c-5.3-4.7-12.7-6-19-9.1c-6.1-3-11.7-6.9-16.7-11.4C69.1,148.8,61.8,136,60.3,122
			c-1.7-16.1,4.2-30.5,15.6-41.7c5.9-5.8,12.7-9.7,19.8-13.7c3.6-2.1,7.4-3.6,11.3-4.9c4.1-1.4,9-4,13.4-4.3
			C123.6,57.2,124.7,52.2,121.2,51.5z"/>
		<path fill="#CAC7C7" d="M165.8,99.5c1.5,1,2.9,2.2,4,3.6c2.7,2.4,5.1,5.2,7,8.3c-0.3-3.4-1.8-6.6-4.9-9.3
			c-3.3-2.8-7.5-4.5-11.7-5.5c2,0.9,3.8,2.1,5.6,3.3C165.9,99.9,165.9,99.7,165.8,99.5z"/>
		<path fill="#CAC7C7" d="M135.9,130c-0.3-0.1-0.6-0.2-0.9-0.3c-0.4,0-0.8,0-1.2-0.1c1.3,0.8,2.8,1.4,4.4,1.6
			C137.3,130.8,136.6,130.4,135.9,130z"/>
		<path fill="#CAC7C7" d="M189.2,69.3c-10.8-8-23.8-11.8-37.1-13.1c2.2-1.5,4.2-3.4,5.8-5.5c8.2-10.8,8.2-26.2-4.1-34.1
			c-5.9-3.8-14.6-2.8-21.3-2.2c-5.6,0.5-13.2,2.8-17.1,7.2c-3.8,4.2-5.1,11.9-4.6,17.3c0.5,5.1,3.2,9.2,7.2,11.7
			c0.9,1,2,1.7,3.2,2.1c-2.3,0.5-2.9,3-2.1,4.8c-8.4,1.5-16.6,3.9-24.2,7.7c-2.4,0.5-4.7,1.3-7,2.2c-5.2,2.1-9.8,4.8-14,8.6
			c-8.6,7.8-15,18.3-17.5,29.7c-2.5,11.6-1.7,24,2.7,35.1c4.4,11.3,12,23.7,24.6,26c0.9,0.8,1.8,1.5,2.7,2.3
			c7.9,6.3,19.3,10.6,29.2,8c1.4,0.4,2.8,0.7,4.3,1c19.8,3.8,39.5-0.9,57.3-10c8.6-4.4,17.3-9.8,22.9-17.7
			c5.8-8.2,8.6-18.6,9.8-28.4C212.4,101.3,206.1,81.9,189.2,69.3z M180.8,128c-0.8,1.2-2,1.8-3.3,2c-2.8,5.9-6.7,11.6-11.5,15.5
			c-3.1,2.6-6.7,4.5-10.6,5.8c-4.3,1.5-9.1,1.7-13.2,3.5c-4.4,1.8-5.2,4.7-4.1,7.2c-3.7,0.1-7.4-0.2-11.1-0.8
			c-1.5-3.2-5.1-6.2-8.7-5.7c-3,0.4-5.8,0.4-8.4-0.1c-4.4-2.4-8.5-5.4-12.2-9.1C86.6,135,83.3,118,88.4,103.2
			c2.3-6.7,6.6-12.3,11.4-17.4c0.4-0.4,0.8-0.8,1.2-1.2c6.9-4.2,15-6.6,23-7.8c7.6-1.1,15.8-1.5,23.9-0.8c-4.4,0.6-8.8,1.9-12.9,3.8
			c0.5,0.3,0.9,0.8,1.3,1.3c0.1,0.2,0.2,0.4,0.3,0.7c7-2.3,14.5-2.4,23.2,1.5C187.4,95.7,184,123.5,180.8,128z"/>
		<path fill="#84CFED" d="M169.5,96.5c-4.9-3.1-9.2,3.6-5.9,7.6c6.1,7.4,9.8,19.2,7,28.6c-2.8,9.4-11.5,15.7-20.6,18.8
			c-0.7-0.5-1.6-0.8-2.6-0.8c-8.1,0-15.5,0.9-23.5-1.6c-3.8-1.2-7.4-2.8-10.8-4.8c-2.1-1.2-4.3-2.4-6.4-3.5c-3-4-5.9-8.4-8.2-12.8
			c-2.4-4.4-3.9-9.3-3.9-14.3c0-2.7,0.2-5.3,0.8-7.9c0.2-1.1,0.4-2.4,0.7-3.8c0-0.1,0.1-0.2,0.2-0.3c0.3-0.6,0.4-1.2,0.3-1.8
			c0.1-0.3,0.2-0.6,0.3-0.9c0.3-0.7,0.3-1.3,0.1-1.9c0.4-1.3,0.8-2.5,1.4-3.3c1-1.4-0.9-3.1-2.3-2.3c-3.5,2.1-6.1,2.7-8.7,6.3
			c-2.6,3.6-4.2,7.6-5.7,11.8c-1.9,5.4-3.4,12-2,17.7c-0.2,2.9,0.3,6,1.2,9c1.8,9.3,7,19.8,16.3,22c15,10,35.8,14,53.4,10.1
			c15.8-3.5,30.4-15.6,34.1-31.8C188.2,121,183.4,105.1,169.5,96.5z"/>
		<path fill="#EC6666" d="M125.5,51.1c-3.3-2.5-7.2-4.3-9.7-7.7c-2.8-3.7-2.7-8.4-3.7-12.7c-0.4-1.6-2.4-1.6-3.3-0.4
			c-7.3,10.1,2.7,28,14.7,28.4C127.9,58.9,128.4,53.4,125.5,51.1z"/>
		<path fill="#FFE295" d="M198,103.8c-2-7.6-7.1-17.3-14.2-22.6c-0.2-0.5-0.5-0.9-1-1.4c-9.6-8.2-23.5-8.6-35.5-8.4
			c-13.5,0.2-27.6,2.2-40.3,6.8c-11.2,4-21.3,9.7-27.1,20.6c-4.9,9.2-6.5,19.9-4.7,30.2c3.8,21.8,24.8,37.8,46,41
			c13.5,2,30.5-0.5,43-5.6c5.5-2.2,10.5-1.2,14.2-6.5c3.9-5.6,7.8-11.1,11.8-16.6C197.9,130.7,201.4,116.5,198,103.8z M188.5,130.2
			c-3.6,10.1-8.8,22.4-18.4,28c-5,2.9-12.5,2.4-18.3,2.7c-6.4,0.3-12.9,1.1-19.3,1.1c-10.3,0-20.7-1.4-29.6-7
			c-7.5-4.7-14-11.4-17.5-19.6c-3.7-8.5-3.8-18.4-0.9-27.1c3.2-9.5,10.5-16.2,19.4-20.4c11.6-5.6,24.3-8.9,37.1-9.8
			c11.5-0.7,27.6-1.2,36.9,6.8c0.6,0.5,1.3,0.8,1.9,0.9c3.8,4.9,7.5,9.6,9.4,16.1C192,111.3,191.8,120.8,188.5,130.2z"/>
		<path fill="#FFE295" d="M137.4,15.2c-2,1-1.6,3.8,0,4.9c5,3.2,10.9,2.8,14.6,8.2c1.9,2.7,2.8,6.9,2.5,10.7
			c-1.5,1.1-2.9,2.6-3.6,3.2c-2.1,1.7-4.6,3.1-7,4.3c-1.2,0.6-2.5,0.9-3.7,1.6c-0.3,0.2-0.6,0.3-0.8,0.6c-0.9,0-1.7,0-2.2-0.3
			c-0.8-0.5-1.2-1.6-1.9-2.3c-0.2-0.1-0.3-0.2-0.5-0.3c2.4-0.5,5.1-0.1,7.2,0.2c6.3,0.8,6.6-9.8,0-10.1c-4.2-0.1-8.6,0.5-12.5,2.3
			c-3.1,1.5-6.1,5.1-3.6,8.5c1.2,1.6,3.2,2.2,4.9,1.2c-0.5,1.6,0.1,3.2,1.2,4.6c-0.9,0.1-1.9,0.3-2.8,0.5c-3.5,0.7-2.6,6.1,0.8,6.1
			c4.3,0,8.6,0,12.9-0.2c2.9-0.2,4-3,3.1-5c0.5-0.2,1-0.5,1.4-0.7c1.3-0.6,2.6-1.2,3.8-2c2.6-1.8,8.8-7.2,8-11.1
			C167.2,29,150.9,8.7,137.4,15.2z"/>
		<path fill="#FFE295" d="M191.3,59.5c-2.5-7.1-16-9.6-22.4-7.1c-4,1.6-4.7,7.6,0,8.8c3.3,0.9,6.8,0.8,10.1,1.5
			c3.3,0.7,6.1,2.5,9.5,1.6C190.5,63.7,192,61.5,191.3,59.5z"/>
		<path fill="#FFE295" d="M105.8,53.6c-5.5-1.2-11.5,0.9-16.4,3.3c-2.2,1-5.1,2.3-6.1,4.7c-0.9,2-0.5,4.6,1.5,5.8
			c3.5,2.3,7.1-0.4,10.7-1.3c3.9-1.1,7.9-1.4,11.6-3C111.2,61.4,109.9,54.5,105.8,53.6z"/>
		<path fill="#A4BDE4" d="M206.6,86.3c-4.5-8.6-11.3-14.4-20.2-17.9c-3.1-1.2-7.6-4.5-11-2.4c-4,2.5-1.8,7.3,0.4,10.1
			c2.8,3.5,6.5,5.6,10,8.3c3.6,2.7,6.1,6.1,8,10.2c3.6,7.7,4.5,16.8,3.5,25.2c-2.3,18.9-11.9,37.7-29.2,47c-2.8,1.5-0.9,6.6,2.3,5.3
			c7.8-3.2,15.2-7,21.4-12.9c6.1-5.8,11.1-12.9,14.7-20.5C214.4,122.4,215.2,102.7,206.6,86.3z"/>
		<path fill="#A4BDE4" d="M188.6,75.3c-4.1-10-17.7-13.8-27.4-15.9c-10.5-2.3-22.5-1.7-33.1-0.3c-19.5,2.5-38.3,10.8-50.8,26.4
			c-11.9,15-16.6,35.6-11.2,54.2c5.6,18.9,21.7,32,40.1,37.6c11.5,3.5,23.4,2.3,35,0.3c4.8-0.8,10.1-1.9,15.3-3.3
			c4.1-0.3,7.9-1,11.9-2.5c2.4-0.9,7.6-2.8,7.1-6.2c0.5-0.4,1.1-0.8,1.6-1.3c1.7-1.5,0.3-4.6-1.9-4.5c-9.5,0.4-18.4,4.7-27.6,6.5
			c-9.6,1.9-19.5,2.1-29.2,0.5c-15.9-2.6-31.7-9.2-39.5-24.2c-7.8-14.8-5.4-33.5,3.8-47.1c9.5-14,25.5-22.6,41.9-25.5
			c10.8-1.8,20.7,0.3,30.9,3.4c5.1,1.6,10.1,2.9,15.1,4.7c5,1.9,9.7,3.6,15.1,2.3C187.7,79.9,189.4,77.3,188.6,75.3z"/>
		<g>
			<g display="none">
				<g display="inline">
					<g>
						<path d="M106.9,96.6c0.1,0,0.2,0,0.4-0.1c0.2,0,0.3,0,0.4,0.1c0,0.9,0,1.6,0,2.2c-0.1,0.1-0.3,0.2-0.4,0.3
							c-0.2,0.1-0.4,0.1-0.6,0.1l0-1.2c-1.2,0.1-2,0.3-2.4,0.4c-0.4,0.1-0.9,0.2-1.3,0.3l-0.2,0.1c0,0.3,0,0.6,0,0.9
							c-0.1,0.1-0.2,0.1-0.3,0.2c-0.4,0.1-0.6,0.2-0.7,0.1c-0.1-0.6-0.1-1.2-0.1-1.6c0-0.4,0-0.7,0.1-0.9l0.3-0.1l0.2,0
							c0,0,0.1,0,0.1,0c0-0.2,0.1-0.4,0.1-0.6c0.2-0.6,0.3-1.2,0.5-1.6c0-0.1,0.2-0.6,0.6-1.6c0.3-0.7,0.5-1.2,0.7-1.6
							c0.2-0.1,0.4-0.2,0.6-0.3s0.5-0.2,0.8-0.3c0.5,0.5,0.9,1.7,1.2,3.8C106.8,95.6,106.9,96.1,106.9,96.6z M106,96.8
							c0-0.2-0.1-0.4-0.1-0.7c-0.1-0.4-0.1-0.8-0.2-1.1c-0.1-0.4-0.2-0.8-0.4-1.3c-0.1-0.1-0.2-0.5-0.5-1.1
							c-0.2,0.3-0.4,0.7-0.6,1.2c-0.2,0.5-0.4,1-0.5,1.5c-0.1,0.6-0.2,1-0.3,1.4c0,0.1-0.1,0.3-0.1,0.5c0.8-0.2,1.5-0.3,2-0.4
							L106,96.8z"/>
						<path d="M115.8,94.2c-0.6,1.4-1.4,2.5-2.3,3.3c-1,0.8-2.1,1.2-3.3,1.2c-0.3,0-0.5,0-0.8-0.1c-0.4,0-0.6-0.3-0.8-0.8
							c-0.2-0.4-0.2-0.8-0.3-1.3c0-0.6,0.2-1.4,0.6-2.1c0.4-0.7,0.8-1.2,1.4-1.6c0.7-0.5,1.1-0.8,1.4-1c0.5-0.3,1.1-0.4,1.7-0.4
							c0.1,0,0.2,0,0.4,0c0.1,0,0.3,0,0.3,0c0.3,0,0.6,0.1,0.9,0.2s0.6,0.4,0.7,0.7c0.2,0.3,0.3,0.6,0.3,1
							C116,93.6,116,93.9,115.8,94.2z M115.1,92.9c0,0,0-0.1,0-0.1c0-0.2-0.1-0.3-0.2-0.4c-0.2-0.1-0.4-0.2-0.6-0.2
							c-0.2,0-0.3,0-0.5,0.1c-0.9,0.2-1.7,0.6-2.5,1.3c-0.9,0.7-1.5,1.4-1.8,2.2c-0.2,0.4-0.2,0.8-0.2,1.1c0,0.2,0,0.4,0.1,0.6
							c0,0.2,0.3,0.3,0.6,0.3c0.4,0,0.8-0.1,1.2-0.2c1-0.4,1.9-1,2.6-1.8S114.9,93.9,115.1,92.9z"/>
						<path d="M124.7,91.8c0.7-0.1,1.4-0.1,2,0c0.7,0.2,1.2,0.4,1.4,0.8c0.2,0.3,0.3,0.5,0.3,0.8c0,0.3,0,0.7-0.2,1
							c-0.2,0.4-0.4,0.7-0.8,1.1c-0.4,0.4-1,0.7-1.8,1c-0.3,0.1-0.6,0.2-0.7,0.2c0,0.1,0,0.3,0,0.4c0,0.2,0,0.7,0.2,1.5
							c-0.1,0.1-0.3,0.2-0.5,0.2c-0.3,0-0.4,0.1-0.4,0.1c-0.1-0.5-0.1-1.2-0.1-2.1c-0.4,0-1,0-1.8-0.2c-0.8-0.2-1.3-0.7-1.4-1.3
							c-0.1-0.5-0.1-0.9,0.1-1.4c0.2-0.4,0.5-0.8,0.9-1c0.6-0.4,1.3-0.8,2.2-1l0-0.3c0.2-0.2,0.5-0.3,0.9-0.3V91.8z M123.8,93.3
							c0,0,0-0.1,0-0.1c-0.5,0-1.1,0.3-2,0.7c-0.3,0.2-0.5,0.4-0.6,0.6c-0.1,0.2-0.1,0.4,0,0.5c0.1,0.2,0.2,0.3,0.5,0.4
							c0.4,0.1,1.1,0.2,2,0.1C123.9,94.5,123.9,93.7,123.8,93.3z M124.7,93.1c0,0.1,0,0.4,0,0.8c0,0.4,0,0.7,0,1c0,0.2,0,0.4,0,0.5
							c0.7,0,1.3-0.3,2-0.7c0.6-0.5,0.9-0.9,0.9-1.2c0-0.3-0.4-0.5-1.1-0.6C125.6,92.9,125.1,92.9,124.7,93.1z"/>
						<path d="M135.7,96.4c-0.4,0.4-1.2,0.9-2.3,1.4c-1,0.4-1.9,0.7-2.8,0.9c-0.3-0.1-0.5-0.3-0.7-0.5c-0.1-0.2-0.3-0.4-0.4-0.6
							c0.1-1,0.1-1.7,0-2.3c0-0.3,0-0.5,0-0.8c0-0.4,0-0.7,0-0.8c-0.2-0.2-0.4-0.6-0.4-1.1c0.8-0.1,1.6-0.4,2.4-0.6
							c1-0.3,1.8-0.6,2.4-0.7c0.1,0.1,0.2,0.3,0.2,0.7c0,0.2,0,0.3,0,0.4c-0.4,0.2-1,0.4-1.8,0.6c-0.7,0.2-1.3,0.4-1.6,0.6
							c0,0.2-0.1,0.3-0.1,0.5c0,0.2,0,0.4,0,0.6c0.3-0.1,0.8-0.2,1.4-0.4c0.6-0.2,1.2-0.4,1.6-0.5c0.1,0.2,0.2,0.4,0.2,0.7
							c0,0.1,0,0.2-0.1,0.3c-0.1,0-0.6,0.2-1.4,0.6c-0.5,0.2-1.1,0.4-1.8,0.5c-0.1,0.5-0.1,0.8-0.1,1c0,0.2,0,0.4,0.1,0.6
							c0.4,0,1.2-0.2,2.3-0.7c1-0.4,1.9-0.9,2.5-1.3c0.1,0,0.2,0.1,0.3,0.4C135.7,96.1,135.8,96.3,135.7,96.4z"/>
						<path d="M141.2,97.8c-1.3,0.8-2.5,1.3-3.5,1.3c-0.8,0-1.4-0.3-1.8-0.9c-0.3-0.5-0.5-1.1-0.5-1.7c0-0.6,0.2-1.2,0.6-1.8
							c0.4-0.7,1.1-1.4,2-2.1c0.8-0.6,1.5-1,2.3-1.3c0.1,0.1,0.3,0.2,0.4,0.4c0.2,0.2,0.3,0.4,0.3,0.6c-1.3,0.5-2.5,1.3-3.7,2.5
							c-0.3,0.4-0.6,0.7-0.8,1.2c-0.2,0.4-0.3,0.8-0.3,1.1c0,0.2,0,0.3,0.1,0.5c0.1,0.3,0.4,0.4,0.8,0.4c0.5,0,1.1-0.2,1.9-0.5
							c0.6-0.2,1.2-0.5,1.8-0.8c0.1,0.1,0.3,0.2,0.4,0.5C141.1,97.4,141.2,97.6,141.2,97.8z"/>
						<path d="M147.8,92.2c-0.3,0.1-0.7,0.3-1.3,0.5c-0.6,0.2-1.1,0.3-1.3,0.5c-0.1,1.4-0.2,2.6-0.2,3.7c0,0.5,0,1.1,0,1.8
							c-0.2,0.2-0.4,0.2-0.9,0.2c0-0.5-0.1-1.2,0-2.1c0-1.1,0-1.8,0-2.1c0-0.5,0-0.8-0.1-1.1c-0.2,0-0.6,0.1-1,0.3
							c-0.4,0.2-0.7,0.3-1,0.3c-0.1-0.1-0.2-0.3-0.3-0.5s-0.2-0.5-0.2-0.7c0.2-0.1,0.4-0.2,0.7-0.2c0.3-0.1,0.6-0.2,0.9-0.2
							c1.2-0.3,2-0.5,2.4-0.7c0.5-0.1,1.2-0.4,2-0.6C147.7,91.3,147.8,91.7,147.8,92.2z"/>
						<path d="M148.6,95.5c0-2,0-3.2,0-3.5c0.3-0.2,0.6-0.3,0.8-0.3c0.1,0,0.1,0,0.2,0c0,1.1-0.1,2.3-0.1,3.4c0,0.7,0,1.3-0.1,1.6
							c0,0.1,0,0.3,0,0.4c0.3-0.5,0.7-1.1,1.2-2.1c0.5-1.2,0.9-2.1,0.9-2.6c0-0.1,0.1-0.2,0.3-0.3c0.1-0.1,0.3-0.1,0.4-0.2
							s0.3-0.1,0.4-0.1c0,0,0.1,0,0.1,0c0.1,0.5,0.1,1.1,0.1,1.8c0,0.3,0,0.6,0,0.9c0,0,0,0.3,0,0.9v3c-0.3,0.3-0.6,0.4-0.9,0.4
							c0,0,0,0,0-0.1h-0.1c0.1-0.9,0.1-1.5,0.1-1.8c0-0.4,0-0.8,0-1.2v-0.2c0-0.3,0-0.5-0.1-0.7c-0.2,0.5-0.4,0.9-0.7,1.4
							s-0.5,0.9-0.8,1.3c-0.2,0.2-0.3,0.5-0.5,0.7c-0.2,0.3-0.4,0.5-0.5,0.6c-0.1,0.1-0.3,0.2-0.4,0.2c-0.3,0.1-0.4,0.1-0.5,0
							c0-0.2,0-0.4,0-0.6C148.6,97.6,148.6,96.7,148.6,95.5z"/>
						<path d="M160.6,94.8c0.4,0.2,0.5,0.5,0.5,0.9c0,0.3-0.1,0.7-0.4,1c-0.3,0.3-0.6,0.7-1.1,0.9c-0.5,0.3-1.1,0.6-1.8,0.8
							c-0.3,0.1-1.1,0.3-2.4,0.6c-0.1,0-0.2-0.2-0.4-0.4c-0.1-0.2-0.3-0.4-0.4-0.5c0-0.5,0-1.2,0-2.3c0-1.1,0-1.8,0-2.4
							c-0.3-0.2-0.5-0.5-0.6-1c1.5-0.6,2.9-0.9,4.2-0.9c0.8,0,1.4,0.1,1.7,0.4c0.2,0.2,0.3,0.3,0.3,0.5c0,0.3-0.1,0.5-0.4,0.8
							c-0.5,0.4-1,0.8-1.5,1C159.3,94.3,160.1,94.5,160.6,94.8z M159.7,95.6c-0.4-0.2-0.9-0.3-1.4-0.3c-0.2,0-0.5,0-0.8,0
							c-0.5,0.1-1,0.2-1.7,0.5c0,0-0.1-0.1-0.1-0.1c0,0-0.1-0.1-0.2-0.1c-0.1,0.8-0.1,1.2-0.1,1.4c0,0.3,0,0.5,0.1,0.9
							c1.8-0.3,3.1-0.8,4-1.4c0.3-0.2,0.4-0.3,0.4-0.5C159.9,95.8,159.9,95.7,159.7,95.6z M158.9,92.9c0.1-0.1,0.1-0.1,0.1-0.2
							c0-0.2-0.3-0.3-0.8-0.3c-0.4,0-0.9,0.1-1.3,0.2c-0.5,0.1-1,0.3-1.3,0.6v1.4C157.2,94.1,158.3,93.5,158.9,92.9z"/>
						<path d="M166.8,98.2c-0.3,0.2-0.6,0.3-0.9,0.2c0-0.3-0.1-0.7-0.1-1c0-0.5-0.1-0.8-0.2-1.2c-0.8,0.1-1.6,0.3-2.5,0.6
							c-0.1,0.4-0.2,1.1-0.3,2c-0.1,0-0.2,0-0.4,0c-0.3,0-0.5,0-0.6-0.2c0-0.5,0.2-1.1,0.3-1.8c0.2-0.7,0.3-1.3,0.5-1.7
							c0-0.1,0.2-0.6,0.6-1.6c0.3-0.7,0.5-1.2,0.7-1.6c0.2-0.1,0.4-0.2,0.6-0.3s0.5-0.2,0.8-0.3c0.5,0.5,0.9,1.7,1.2,3.8
							c0.1,0.4,0.1,0.9,0.2,1.5C166.7,97.4,166.7,97.9,166.8,98.2z M165.4,95c-0.1-0.4-0.2-0.8-0.4-1.3c-0.1-0.1-0.2-0.5-0.5-1.1
							c-0.2,0.3-0.4,0.7-0.6,1.2c-0.2,0.5-0.4,1-0.5,1.5c0.3-0.1,0.7-0.2,1.2-0.3C164.9,95,165.2,95,165.4,95z"/>
						<path d="M168.7,96.8c-0.1,0.4-0.2,1.1-0.3,2c-0.1,0-0.2,0-0.4,0c-0.3,0-0.5,0-0.6-0.2c0-0.5,0.2-1.1,0.3-1.8
							c0.2-0.7,0.3-1.3,0.5-1.7c0-0.1,0.2-0.6,0.6-1.6c0.3-0.7,0.5-1.2,0.7-1.6c0.2-0.1,0.4-0.2,0.6-0.3s0.5-0.2,0.8-0.3
							c0.5,0.5,0.9,1.7,1.2,3.8c0.1,0.4,0.1,0.9,0.2,1.5c0.1,0.8,0.1,1.3,0.1,1.5c-0.3,0.2-0.6,0.3-0.9,0.2c0-0.3-0.1-0.7-0.1-1
							c0-0.5-0.1-0.9-0.2-1.3c-0.1-0.4-0.1-0.8-0.2-1.1c-0.1-0.4-0.2-0.8-0.4-1.3c-0.1-0.1-0.2-0.5-0.5-1.1
							c-0.2,0.3-0.4,0.7-0.6,1.2c-0.2,0.5-0.4,1-0.5,1.5C168.8,96,168.7,96.4,168.7,96.8z"/>
						<path d="M176.3,96.2c-0.8,0-1.3,0-1.7-0.2c-0.4-0.1-0.8-0.3-1-0.5c-0.3-0.2-0.4-0.5-0.4-0.8c0-0.2,0-0.5,0.1-0.7
							c0.4-0.7,1.2-1.3,2.2-1.8c0.7-0.4,1.5-0.6,2.4-0.7c0.8-0.1,1.4-0.2,2.1-0.1c0,0.2-0.1,0.4-0.1,0.6c-0.1,0.2-0.1,0.4-0.2,0.5
							c-0.1,0-0.1,0.1-0.2,0c-0.1,0-0.1,0-0.1,0c0,0,0,0-0.1,0.1c0.2,2.2,0.3,4.1,0.3,5.4c-0.1,0.1-0.2,0.1-0.3,0.2
							c-0.1,0-0.3,0.1-0.6,0.1c0-0.1-0.1-0.3-0.1-0.7c0-0.4,0-0.7,0-0.8l-0.1-0.7c-0.4,0-0.8,0.1-1.2,0.4c-0.3,0.2-0.7,0.6-1.2,1.1
							c-0.7,0.6-1.2,1.1-1.5,1.3c-0.3-0.4-0.5-0.7-0.6-0.9c0.1-0.1,0.5-0.4,1.3-1.1C175.7,96.7,176,96.5,176.3,96.2z M175.8,95.3
							c0.9,0,1.7,0,2.7-0.1c0-0.1,0-0.5-0.1-1.3c0-0.6-0.1-1-0.2-1.2c-0.2,0-0.3,0-0.5,0.1c-0.2,0-0.6,0.1-1.1,0.2
							c-0.5,0.1-0.9,0.3-1.3,0.6c-0.6,0.3-0.9,0.6-1.1,1C174.1,94.9,174.6,95.2,175.8,95.3z"/>
						<path d="M121.1,106.3c-0.6,1.4-1.4,2.5-2.3,3.3c-1,0.8-2.1,1.2-3.3,1.2c-0.3,0-0.5,0-0.8-0.1c-0.4,0-0.6-0.3-0.8-0.8
							c-0.2-0.4-0.2-0.8-0.3-1.3c0-0.6,0.2-1.4,0.6-2.1c0.4-0.7,0.8-1.2,1.4-1.6c0.7-0.5,1.1-0.8,1.4-1c0.5-0.3,1.1-0.4,1.7-0.4
							c0.1,0,0.2,0,0.4,0c0.1,0,0.3,0,0.3,0c0.3,0,0.6,0.1,0.9,0.2s0.6,0.4,0.7,0.7c0.2,0.3,0.3,0.6,0.3,1
							C121.3,105.7,121.3,106,121.1,106.3z M120.4,105c0,0,0-0.1,0-0.1c0-0.2-0.1-0.3-0.2-0.4c-0.2-0.1-0.4-0.2-0.6-0.2
							c-0.2,0-0.3,0-0.5,0.1c-0.9,0.2-1.7,0.6-2.5,1.3c-0.9,0.7-1.5,1.4-1.8,2.2c-0.2,0.4-0.2,0.8-0.2,1.1c0,0.2,0,0.4,0.1,0.6
							c0,0.2,0.3,0.3,0.6,0.3c0.4,0,0.8-0.1,1.2-0.2c1-0.4,1.9-1,2.6-1.8S120.2,106.1,120.4,105z"/>
						<path d="M128,109.9c-1.3,0.8-2.5,1.3-3.5,1.3c-0.8,0-1.4-0.3-1.8-0.9c-0.3-0.5-0.5-1.1-0.5-1.7c0-0.6,0.2-1.2,0.6-1.8
							c0.4-0.7,1.1-1.4,2-2.1c0.8-0.6,1.5-1,2.3-1.3c0.1,0.1,0.3,0.2,0.4,0.4c0.2,0.2,0.3,0.4,0.3,0.6c-1.3,0.5-2.5,1.3-3.7,2.5
							c-0.3,0.4-0.6,0.7-0.8,1.2c-0.2,0.4-0.3,0.8-0.3,1.1c0,0.2,0,0.3,0.1,0.5c0.1,0.3,0.4,0.4,0.8,0.4c0.5,0,1.1-0.2,1.9-0.5
							c0.6-0.2,1.2-0.5,1.8-0.8c0.1,0.1,0.3,0.2,0.4,0.5C127.9,109.5,128,109.7,128,109.9z"/>
						<path d="M134.6,104.3c-0.3,0.1-0.7,0.3-1.3,0.5c-0.6,0.2-1.1,0.3-1.3,0.5c-0.1,1.4-0.2,2.6-0.2,3.7c0,0.5,0,1.1,0,1.8
							c-0.2,0.2-0.4,0.2-0.9,0.2c0-0.5-0.1-1.2,0-2.1c0-1.1,0-1.8,0-2.1c0-0.5,0-0.8-0.1-1.1c-0.2,0-0.6,0.1-1,0.3
							c-0.4,0.2-0.7,0.3-1,0.3c-0.1-0.1-0.2-0.3-0.3-0.5s-0.2-0.5-0.2-0.7c0.2-0.1,0.4-0.2,0.7-0.2c0.3-0.1,0.6-0.2,0.9-0.2
							c1.2-0.3,2-0.5,2.4-0.7c0.5-0.1,1.2-0.4,2-0.6C134.5,103.4,134.6,103.8,134.6,104.3z"/>
						<path d="M139.8,110.3c-0.3,0.2-0.6,0.3-0.9,0.2c0-0.3-0.1-0.7-0.1-1c0-0.5-0.1-0.8-0.2-1.2c-0.8,0.1-1.6,0.3-2.5,0.6
							c-0.1,0.4-0.2,1.1-0.3,2c-0.1,0-0.2,0-0.4,0c-0.3,0-0.5,0-0.6-0.2c0-0.5,0.2-1.1,0.3-1.8c0.2-0.7,0.3-1.3,0.5-1.7
							c0-0.1,0.2-0.6,0.6-1.6c0.3-0.7,0.5-1.2,0.7-1.6c0.2-0.1,0.4-0.2,0.6-0.3s0.5-0.2,0.8-0.3c0.5,0.5,0.9,1.7,1.2,3.8
							c0.1,0.4,0.1,0.9,0.2,1.5C139.7,109.6,139.8,110.1,139.8,110.3z M138.4,107.1c-0.1-0.4-0.2-0.8-0.4-1.3
							c-0.1-0.1-0.2-0.5-0.5-1.1c-0.2,0.3-0.4,0.7-0.6,1.2c-0.2,0.5-0.4,1-0.5,1.5c0.3-0.1,0.7-0.2,1.2-0.3
							C138,107.2,138.2,107.1,138.4,107.1z"/>
						<path d="M141.7,108.9c-0.1,0.4-0.2,1.1-0.3,2c-0.1,0-0.2,0-0.4,0c-0.3,0-0.5,0-0.6-0.2c0-0.5,0.2-1.1,0.3-1.8
							c0.2-0.7,0.3-1.3,0.5-1.7c0-0.1,0.2-0.6,0.6-1.6c0.3-0.7,0.5-1.2,0.7-1.6c0.2-0.1,0.4-0.2,0.6-0.3s0.5-0.2,0.8-0.3
							c0.5,0.5,0.9,1.7,1.2,3.8c0.1,0.4,0.1,0.9,0.2,1.5c0.1,0.8,0.1,1.3,0.1,1.5c-0.3,0.2-0.6,0.3-0.9,0.2c0-0.3-0.1-0.7-0.1-1
							c0-0.5-0.1-0.9-0.2-1.3c-0.1-0.4-0.1-0.8-0.2-1.1c-0.1-0.4-0.2-0.8-0.4-1.3c-0.1-0.1-0.2-0.5-0.5-1.1
							c-0.2,0.3-0.4,0.7-0.6,1.2c-0.2,0.5-0.4,1-0.5,1.5C141.8,108.1,141.7,108.6,141.7,108.9z"/>
						<path d="M153.6,106.3c-0.6,1.4-1.4,2.5-2.3,3.3c-1,0.8-2.1,1.2-3.3,1.2c-0.3,0-0.5,0-0.8-0.1c-0.4,0-0.6-0.3-0.8-0.8
							c-0.2-0.4-0.2-0.8-0.3-1.3c0-0.6,0.2-1.4,0.6-2.1c0.4-0.7,0.8-1.2,1.4-1.6c0.7-0.5,1.1-0.8,1.4-1c0.5-0.3,1.1-0.4,1.7-0.4
							c0.1,0,0.2,0,0.4,0c0.1,0,0.3,0,0.3,0c0.3,0,0.6,0.1,0.9,0.2s0.6,0.4,0.7,0.7c0.2,0.3,0.3,0.6,0.3,1
							C153.8,105.7,153.7,106,153.6,106.3z M152.8,105c0,0,0-0.1,0-0.1c0-0.2-0.1-0.3-0.2-0.4c-0.2-0.1-0.4-0.2-0.6-0.2
							c-0.2,0-0.3,0-0.5,0.1c-0.9,0.2-1.7,0.6-2.5,1.3c-0.9,0.7-1.5,1.4-1.8,2.2c-0.2,0.4-0.2,0.8-0.2,1.1c0,0.2,0,0.4,0.1,0.6
							c0,0.2,0.3,0.3,0.6,0.3c0.4,0,0.8-0.1,1.2-0.2c1-0.4,1.9-1,2.6-1.8S152.6,106.1,152.8,105z"/>
						<path d="M160.4,109.9c-1.3,0.8-2.5,1.3-3.5,1.3c-0.8,0-1.4-0.3-1.8-0.9c-0.3-0.5-0.5-1.1-0.5-1.7c0-0.6,0.2-1.2,0.6-1.8
							c0.4-0.7,1.1-1.4,2-2.1c0.8-0.6,1.5-1,2.3-1.3c0.1,0.1,0.3,0.2,0.4,0.4c0.2,0.2,0.3,0.4,0.3,0.6c-1.3,0.5-2.5,1.3-3.7,2.5
							c-0.3,0.4-0.6,0.7-0.8,1.2c-0.2,0.4-0.3,0.8-0.3,1.1c0,0.2,0,0.3,0.1,0.5c0.1,0.3,0.4,0.4,0.8,0.4c0.5,0,1.1-0.2,1.9-0.5
							c0.6-0.2,1.2-0.5,1.8-0.8c0.1,0.1,0.3,0.2,0.4,0.5C160.4,109.5,160.4,109.7,160.4,109.9z"/>
						<path d="M161.7,106.5c0-0.4,0-1.1,0.1-2.2c0.2-0.2,0.5-0.3,0.9-0.3c0,1.1,0,2,0,2.7c1.1-0.3,2-0.4,2.7-0.3
							c1,0.1,1.8,0.3,2.3,0.5c0.4,0.2,0.5,0.5,0.5,0.9c0,0.3-0.1,0.7-0.4,1c-0.3,0.3-0.6,0.7-1.1,0.9c-0.5,0.3-1.1,0.6-1.8,0.8
							c-0.3,0.1-1.1,0.3-2.4,0.6c-0.1,0-0.2-0.2-0.4-0.4c-0.1-0.2-0.3-0.4-0.4-0.5c0-0.5,0-1.2,0-2.3c0-0.4,0-0.8,0-1.1l0,0
							L161.7,106.5z M166.8,107.7c-0.4-0.2-0.9-0.3-1.4-0.3c-0.2,0-0.5,0-0.8,0c-0.5,0.1-1,0.2-1.7,0.5c0,0-0.1-0.1-0.1-0.1
							c0,0-0.1-0.1-0.2-0.1c-0.1,0.8-0.1,1.2-0.1,1.4c0,0.3,0,0.5,0.1,0.9c1.8-0.3,3.1-0.8,4-1.4c0.3-0.2,0.4-0.3,0.4-0.5
							C167,107.9,166.9,107.8,166.8,107.7z"/>
						<path d="M128.9,116.6c-0.1,0.7-0.4,1.3-0.9,1.9c-0.3,0.4-0.8,0.8-1.5,1.3c-0.4,0.3-0.9,0.6-1.4,0.8c-0.6,0.3-1,0.5-1.2,0.5
							c0,0.2,0,0.5,0,0.7c0,0.1,0,0.4,0,0.8c0,0.3,0,0.5,0,0.7l-0.8-0.4c0-0.1,0-0.2,0-0.3c0-0.1,0-0.2,0-0.3s0-0.2,0-0.3
							c0-0.2,0-0.4-0.1-0.7c0-0.1-0.1-0.3-0.2-0.5c-0.2-0.3-0.3-0.5-0.3-0.6c0.1-0.1,0.3-0.2,0.6-0.4c0-0.5,0-1.3,0-2.4
							c-0.2,0-0.3-0.1-0.4-0.3c-0.2-0.3-0.3-0.5-0.3-0.6c0.2-0.1,0.8-0.3,1.6-0.6c0.9-0.4,1.9-0.6,2.9-0.6c0.6,0,1.1,0.1,1.4,0.2
							c0.4,0.2,0.6,0.4,0.6,0.8C128.9,116.5,128.9,116.5,128.9,116.6z M128,117c0.1-0.2,0.2-0.3,0.2-0.4c0-0.2-0.2-0.3-0.5-0.3
							c-0.3,0-1,0.2-2.2,0.5c-0.2,0.1-0.4,0.2-0.8,0.3c-0.3,0.2-0.6,0.3-0.6,0.3c-0.1,0.3-0.1,0.7-0.2,1.2c0,0.6,0,0.9-0.1,1.1
							C125.9,119.2,127.3,118.3,128,117z"/>
						<path d="M137.1,118.4c-0.6,1.4-1.4,2.5-2.3,3.3c-1,0.8-2.1,1.2-3.3,1.2c-0.3,0-0.5,0-0.8-0.1c-0.4,0-0.6-0.3-0.8-0.8
							c-0.2-0.4-0.2-0.8-0.3-1.3c0-0.6,0.2-1.4,0.6-2.1c0.4-0.7,0.8-1.2,1.4-1.6c0.7-0.5,1.1-0.8,1.4-1c0.5-0.3,1.1-0.4,1.7-0.4
							c0.1,0,0.2,0,0.4,0c0.1,0,0.3,0,0.3,0c0.3,0,0.6,0.1,0.9,0.2s0.6,0.4,0.7,0.7c0.2,0.3,0.3,0.6,0.3,1
							C137.2,117.8,137.2,118.1,137.1,118.4z M136.3,117.1c0,0,0-0.1,0-0.1c0-0.2-0.1-0.3-0.2-0.4c-0.2-0.1-0.4-0.2-0.6-0.2
							c-0.2,0-0.3,0-0.5,0.1c-0.9,0.2-1.7,0.6-2.5,1.3c-0.9,0.7-1.5,1.4-1.8,2.2c-0.2,0.4-0.2,0.8-0.2,1.1c0,0.2,0,0.4,0.1,0.6
							c0,0.2,0.3,0.3,0.6,0.3c0.4,0,0.8-0.1,1.2-0.2c1-0.4,1.9-1,2.6-1.8S136.1,118.2,136.3,117.1z"/>
						<path d="M144.5,119.1c0.4,0.2,0.5,0.5,0.5,0.9c0,0.3-0.1,0.7-0.4,1c-0.3,0.3-0.6,0.7-1.1,0.9c-0.5,0.3-1.1,0.6-1.8,0.8
							c-0.3,0.1-1.1,0.3-2.4,0.6c-0.1,0-0.2-0.2-0.4-0.4c-0.1-0.2-0.3-0.4-0.4-0.5c0-0.5,0-1.2,0-2.3c0-1.1,0-1.8,0-2.4
							c-0.3-0.2-0.5-0.5-0.6-1c1.5-0.6,2.9-0.9,4.2-0.9c0.8,0,1.4,0.1,1.7,0.4c0.2,0.2,0.3,0.3,0.3,0.5c0,0.3-0.1,0.5-0.4,0.8
							c-0.5,0.4-1,0.8-1.5,1C143.3,118.6,144,118.8,144.5,119.1z M143.6,119.9c-0.4-0.2-0.9-0.3-1.4-0.3c-0.2,0-0.5,0-0.8,0
							c-0.5,0.1-1,0.2-1.7,0.5c0,0-0.1-0.1-0.1-0.1c0,0-0.1-0.1-0.2-0.1c-0.1,0.8-0.1,1.2-0.1,1.4c0,0.3,0,0.5,0.1,0.9
							c1.8-0.3,3.1-0.8,4-1.4c0.3-0.2,0.4-0.3,0.4-0.5C143.8,120,143.8,119.9,143.6,119.9z M142.8,117.1c0.1-0.1,0.1-0.1,0.1-0.2
							c0-0.2-0.3-0.3-0.8-0.3c-0.4,0-0.9,0.1-1.3,0.2c-0.5,0.1-1,0.3-1.3,0.6v1.4C141.1,118.4,142.2,117.8,142.8,117.1z"/>
						<path d="M150.6,120.3l-0.1,2.5c-0.1,0.1-0.3,0.1-0.4,0.2c-0.1,0.1-0.3,0.1-0.4,0.1c0.1-0.9,0.1-1.5,0.1-1.8
							c0-0.4,0-0.8-0.1-1.1c-0.4,0-0.8,0.1-1.2,0.2c-0.3,0.1-0.7,0.3-1.2,0.5c-0.1,0.4-0.1,0.8-0.1,1.1c0,0.4,0,0.7,0.1,1
							c-0.1,0.1-0.2,0.2-0.4,0.2c-0.2,0.1-0.4,0.1-0.5,0.1c-0.1-0.9-0.1-2.1-0.1-3.5c0-2,0-3.2,0-3.5c0.3-0.2,0.6-0.3,0.8-0.3
							c0.1,0,0.1,0,0.2,0c0,1.1-0.1,2.3-0.1,3.4c0.4-0.1,0.8-0.2,1.3-0.4c0.5-0.2,0.8-0.3,1.1-0.3c0-0.1,0-0.3,0-0.5
							c0-0.6-0.1-1.2-0.2-1.8c0.1-0.1,0.3-0.1,0.4-0.2s0.3-0.1,0.4-0.1c0,0,0.1,0,0.1,0c0.1,0.5,0.1,1.1,0.1,1.8c0,0.6,0,1.2,0,1.8
							C150.6,120,150.6,120.1,150.6,120.3z"/>
						<path d="M159.3,118.4c-0.6,1.4-1.4,2.5-2.3,3.3c-1,0.8-2.1,1.2-3.3,1.2c-0.3,0-0.5,0-0.8-0.1c-0.4,0-0.6-0.3-0.8-0.8
							c-0.2-0.4-0.2-0.8-0.3-1.3c0-0.6,0.2-1.4,0.6-2.1c0.4-0.7,0.8-1.2,1.4-1.6c0.7-0.5,1.1-0.8,1.4-1c0.5-0.3,1.1-0.4,1.7-0.4
							c0.1,0,0.2,0,0.4,0c0.1,0,0.3,0,0.3,0c0.3,0,0.6,0.1,0.9,0.2s0.6,0.4,0.7,0.7c0.2,0.3,0.3,0.6,0.3,1
							C159.5,117.8,159.5,118.1,159.3,118.4z M158.6,117.1c0,0,0-0.1,0-0.1c0-0.2-0.1-0.3-0.2-0.4c-0.2-0.1-0.4-0.2-0.6-0.2
							c-0.2,0-0.3,0-0.5,0.1c-0.9,0.2-1.7,0.6-2.5,1.3c-0.9,0.7-1.5,1.4-1.8,2.2c-0.2,0.4-0.2,0.8-0.2,1.1c0,0.2,0,0.4,0.1,0.6
							c0,0.2,0.3,0.3,0.6,0.3c0.4,0,0.8-0.1,1.2-0.2c1-0.4,1.9-1,2.6-1.8S158.4,118.2,158.6,117.1z"/>
					</g>
				</g>
				<g display="inline">
					<g>
						<path d="M120.9,131c0.4,0.3,0.6,0.7,0.6,1.2c0,0.6-0.2,1.1-0.6,1.7c-0.2,0.3-0.5,0.6-1,0.9c-0.4,0.4-0.9,0.6-1.3,0.9
							c-0.3,0.2-0.7,0.3-1.3,0.5c-0.6,0.1-1.1,0.2-1.5,0.2c-0.1,0-0.2,0-0.3,0c-0.5-0.1-0.9-0.5-1.3-1c-0.4-0.6-0.6-1.3-0.6-2
							c0-1.3,0.6-2.6,1.9-3.9c1-1.1,2.2-1.9,3.5-2.4c0.2,0.1,0.3,0.3,0.5,0.5c0.2,0.2,0.2,0.5,0.3,0.7c-0.8,0.3-1.6,0.8-2.3,1.3
							c-0.9,0.7-1.6,1.5-2.2,2.4c0.7-0.2,1.4-0.5,2.2-0.7c1-0.3,1.8-0.5,2.4-0.5C120.3,130.7,120.7,130.8,120.9,131z M120.3,132.2
							c-0.1-0.1-0.3-0.2-0.6-0.2c-0.4,0-0.9,0.1-1.5,0.3c-0.5,0.2-0.9,0.3-1.2,0.5c-0.4,0.2-1,0.5-1.7,0.9c-0.1-0.1-0.2-0.3-0.4-0.5
							c-0.1,0.1-0.2,0.3-0.2,0.5c0,0.3,0,0.5,0.2,0.7c0.1,0.2,0.5,0.4,1,0.4c0.5,0,1.2-0.1,2-0.4c0.7-0.2,1.3-0.5,1.7-0.7
							c0.2-0.1,0.4-0.3,0.6-0.4c0.2-0.2,0.4-0.5,0.4-0.7C120.5,132.4,120.5,132.3,120.3,132.2z"/>
						<path d="M129.3,132c-0.4,0-1,0.1-1.6,0.3l-2,4.1c-0.2-0.1-0.6-0.3-1.1-0.6c0.4-0.9,0.9-1.9,1.5-3.1c-0.5,0.2-0.9,0.3-1.3,0.5
							c0-0.3-0.1-0.8-0.3-1.4c0.5-0.1,1.3-0.3,2.4-0.6c0.4-0.8,0.7-1.5,0.9-2.1c-0.8,0-1.5,0.1-2.4,0.4c-1,0.3-1.8,0.5-2.5,0.6
							c-0.1-0.2-0.2-0.4-0.2-0.8c-0.1-0.3-0.1-0.6-0.2-0.9c0.8-0.2,1.8-0.4,3-0.6c1-0.1,2-0.2,3-0.4c0.3,0.3,0.5,0.9,0.6,1.7
							c-0.1,0.3-0.4,0.9-0.7,1.6c0.2-0.1,0.4-0.1,0.6-0.1L129.3,132z"/>
						<path d="M141.8,133.4c0.1,0,0.3,0,0.5-0.1c0.2,0,0.4,0,0.5,0.1c0,1.1,0,2,0,2.7c-0.1,0.1-0.3,0.2-0.5,0.3
							c-0.3,0.1-0.5,0.1-0.7,0.1l0-1.5c-1.4,0.2-2.4,0.3-3,0.5s-1.1,0.3-1.6,0.4l-0.3,0.1c0,0.4,0,0.7,0.1,1
							c-0.1,0.1-0.2,0.2-0.4,0.2c-0.5,0.1-0.8,0.2-0.9,0.2c-0.1-0.8-0.1-1.4-0.1-1.9c0-0.5,0-0.9,0.1-1l0.4-0.1l0.2-0.1
							c0.1,0,0.1,0,0.2,0c0-0.2,0.1-0.4,0.2-0.7c0.2-0.8,0.4-1.4,0.6-1.9c0-0.1,0.3-0.7,0.7-2c0.3-0.9,0.6-1.5,0.8-2
							c0.2-0.1,0.5-0.2,0.8-0.4c0.3-0.1,0.6-0.2,0.9-0.3c0.6,0.6,1.1,2.1,1.4,4.6C141.7,132.2,141.8,132.7,141.8,133.4z
							 M140.7,133.6c0-0.2-0.1-0.5-0.1-0.8c-0.1-0.5-0.2-0.9-0.2-1.3c-0.1-0.5-0.2-1-0.5-1.5c-0.1-0.2-0.3-0.6-0.6-1.3
							c-0.3,0.3-0.5,0.8-0.8,1.5c-0.2,0.6-0.4,1.2-0.6,1.9c-0.2,0.7-0.3,1.2-0.3,1.7c0,0.2-0.1,0.4-0.1,0.6c1-0.2,1.8-0.4,2.5-0.5
							L140.7,133.6z"/>
						<path d="M149.4,132.8l-0.2,3c-0.2,0.1-0.4,0.1-0.5,0.2c-0.2,0.1-0.3,0.1-0.5,0.1c0.1-1.1,0.1-1.8,0.1-2.2c0-0.5,0-0.9-0.1-1.4
							c-0.5,0.1-1,0.1-1.4,0.3c-0.4,0.1-0.9,0.3-1.5,0.6c-0.1,0.5-0.1,0.9-0.1,1.3c0,0.4,0,0.8,0.1,1.2c-0.1,0.1-0.3,0.2-0.5,0.3
							c-0.3,0.1-0.5,0.2-0.6,0.2c-0.1-1.1-0.1-2.5-0.1-4.3c0-2.4,0-3.9,0-4.3c0.4-0.2,0.7-0.4,1-0.4c0.1,0,0.1,0,0.2,0
							c-0.1,1.4-0.1,2.7-0.1,4.1c0.5-0.1,1-0.3,1.6-0.5c0.6-0.2,1-0.3,1.3-0.4c0-0.2,0-0.4,0-0.6c0-0.7-0.1-1.4-0.2-2.2
							c0.2-0.1,0.3-0.2,0.5-0.3c0.2-0.1,0.3-0.1,0.5-0.1c0,0,0.1,0,0.2,0c0.1,0.6,0.1,1.3,0.1,2.2c0,0.7,0,1.5,0,2.2
							C149.4,132.3,149.4,132.5,149.4,132.8z"/>
						<path d="M158.9,133.2c-0.5,0.5-1.5,1.1-2.8,1.7c-1.2,0.5-2.3,0.9-3.4,1.1c-0.3-0.1-0.6-0.3-0.8-0.6c-0.2-0.2-0.3-0.5-0.5-0.7
							c0.1-1.2,0.1-2.1,0-2.8c0-0.3,0-0.7,0-1c0-0.5,0-0.8,0.1-1c-0.3-0.3-0.5-0.7-0.5-1.3c1-0.2,1.9-0.4,2.9-0.7
							c1.2-0.4,2.2-0.7,2.9-0.9c0.2,0.1,0.2,0.4,0.2,0.8c0,0.2,0,0.4-0.1,0.5c-0.5,0.2-1.2,0.5-2.2,0.7c-0.9,0.2-1.5,0.5-2,0.7
							c0,0.2-0.1,0.4-0.1,0.6c0,0.2-0.1,0.4-0.1,0.7c0.4-0.1,1-0.2,1.7-0.5c0.8-0.3,1.4-0.5,2-0.6c0.2,0.2,0.2,0.5,0.2,0.9
							c0,0.1,0,0.2-0.1,0.3c-0.1,0-0.7,0.3-1.7,0.7c-0.7,0.3-1.4,0.5-2.2,0.6c-0.1,0.6-0.1,1-0.1,1.2c0,0.3,0,0.5,0.1,0.7
							c0.5,0,1.5-0.3,2.8-0.8c1.3-0.5,2.3-1.1,3-1.6c0.1,0,0.3,0.2,0.4,0.5C158.9,132.8,158.9,133,158.9,133.2z"/>
						<path d="M159,132.1c0-2.4,0-3.9,0-4.3c0.4-0.2,0.7-0.4,1-0.4c0.1,0,0.1,0,0.2,0c-0.1,1.4-0.1,2.7-0.1,4.1
							c0,0.9-0.1,1.6-0.1,1.9c0,0.2,0,0.3,0,0.5c0.4-0.6,0.9-1.4,1.4-2.5c0.7-1.5,1-2.5,1.1-3.2c0.1-0.2,0.2-0.3,0.3-0.3
							c0.2-0.1,0.3-0.2,0.5-0.3c0.2-0.1,0.3-0.1,0.5-0.1c0,0,0.1,0,0.2,0c0.1,0.6,0.1,1.3,0.1,2.2c0,0.4,0,0.7,0,1.1
							c0,0,0,0.4,0.1,1.1v3.6c-0.3,0.3-0.7,0.5-1.1,0.5c0,0,0,0,0-0.1H163c0.1-1.1,0.1-1.8,0.1-2.2c0-0.5,0-1,0-1.5v-0.3
							c0-0.3-0.1-0.6-0.1-0.9c-0.3,0.6-0.5,1.1-0.8,1.7c-0.3,0.5-0.6,1.1-0.9,1.6c-0.2,0.3-0.4,0.6-0.6,0.8
							c-0.2,0.3-0.4,0.6-0.6,0.7c-0.2,0.1-0.3,0.2-0.5,0.3c-0.3,0.1-0.5,0.1-0.6-0.1c0-0.2,0-0.5,0-0.7
							C159,134.6,159,133.5,159,132.1z M161.9,127.3c-0.4,0.1-0.8,0.1-1.1-0.1c-0.3-0.2-0.6-0.4-0.8-0.7c0.2-0.5,0.4-0.7,0.5-0.8
							c0.1,0.1,0.3,0.2,0.5,0.4c0.2,0.1,0.5,0.1,0.7,0c0.3-0.1,0.5-0.3,0.8-0.6c0.1,0.1,0.2,0.2,0.4,0.4c0.2,0.2,0.3,0.4,0.3,0.5
							C162.8,126.9,162.3,127.2,161.9,127.3z"/>
					</g>
				</g>
				<g display="inline">
					<path d="M119.7,142.4c-0.2,2.8-0.3,5.5-0.3,7.9c0,0.7,0,1.3,0,1.9c-0.2,0.2-0.7,0.3-1.3,0.3c0-0.8,0-1.8,0-3.1
						c0-1.6,0-2.6,0-3.1c0-0.7-0.1-1.2-0.1-1.7c-0.4,0.1-0.8,0.2-1,0.3c-0.3,0.2-0.5,0.3-0.5,0.3c-0.1-0.1-0.2-0.4-0.4-0.8
						s-0.3-0.7-0.3-1c0.7-0.3,1.4-0.6,2-0.7C118.7,142.6,119.4,142.5,119.7,142.4z"/>
					<path d="M125.5,142.4c-0.2,2.8-0.3,5.5-0.3,7.9c0,0.7,0,1.3,0,1.9c-0.2,0.2-0.7,0.3-1.3,0.3c0-0.8,0-1.8,0-3.1
						c0-1.6,0-2.6,0-3.1c0-0.7-0.1-1.2-0.1-1.7c-0.4,0.1-0.8,0.2-1,0.3c-0.3,0.2-0.5,0.3-0.5,0.3c-0.1-0.1-0.2-0.4-0.4-0.8
						s-0.3-0.7-0.3-1c0.7-0.3,1.4-0.6,2-0.7C124.6,142.6,125.2,142.5,125.5,142.4z"/>
					<path d="M130.5,146.3c-0.2,0.3-0.4,0.5-0.8,0.8c-0.4,0.2-0.7,0.4-1.1,0.4c-0.2-0.1-0.5-0.3-0.7-0.6c-0.3-0.3-0.4-0.6-0.4-0.9
						c0.3-0.3,0.6-0.5,1.1-0.8c0.5-0.3,0.9-0.5,1.2-0.5c0.2,0.1,0.3,0.4,0.5,0.7C130.4,145.7,130.5,146,130.5,146.3z M130.5,151.1
						c-0.2,0.3-0.4,0.5-0.8,0.8c-0.4,0.2-0.7,0.4-1.1,0.4c-0.2-0.1-0.5-0.3-0.7-0.6c-0.3-0.3-0.4-0.6-0.4-0.9
						c0.3-0.3,0.6-0.5,1.1-0.8c0.5-0.3,0.9-0.5,1.2-0.5c0.2,0.1,0.3,0.4,0.5,0.7C130.4,150.5,130.5,150.8,130.5,151.1z"/>
					<path d="M139.8,147.7l-1,0.3c0,0.6,0,1.2,0,1.9c-0.1,0.8-0.1,1.6-0.1,2.3c-0.2,0.1-0.4,0.2-0.7,0.3s-0.4,0.1-0.6,0.1
						c0.1-1.3,0.1-2.2,0.1-2.7c0-0.6,0-1.1-0.1-1.7c-1.4,0.1-3,0.6-4.9,1.5c-0.1-0.8-0.1-1.6-0.1-2.2c0-0.2,0-0.8,0-2c0-1,0-2,0-3
						c0.5-0.3,0.9-0.4,1.2-0.4c0.1,0,0.2,0,0.2,0c-0.1,1.7-0.1,3.4-0.1,5.1c0.6-0.1,1.2-0.3,2-0.6c0.7-0.2,1.3-0.4,1.6-0.5
						c0-0.2,0-0.4,0-0.7c0-0.8-0.1-1.7-0.3-2.7c0.2-0.1,0.4-0.2,0.6-0.3s0.4-0.2,0.6-0.2c0.1,0,0.1,0,0.2,0c0.1,1.1,0.2,2.2,0.2,3.4
						l0.9-0.3V147.7z"/>
					<path d="M151.1,142.4c-0.9,1.5-2.6,3.4-5.3,5.4c0.3,0.2,0.7,0.4,1.2,0.6c0.6,0.2,1.1,0.4,1.3,0.6c0.4,0.3,0.8,0.6,1.1,1.1
						c0,0.1,0.1,0.1,0.1,0.2c0,0.3-0.3,0.7-0.8,1.2c-0.5,0.4-0.9,0.7-1.2,0.8c-0.8,0.4-1.8,0.5-3,0.5c-0.3,0-0.6,0-0.9,0
						c-0.4,0-0.8-0.2-1.2-0.5c-0.3-0.2-0.6-0.6-1-1.1c-0.3-0.3-0.4-0.7-0.4-1c0-0.5,0.3-1,0.8-1.5c0.3-0.3,0.8-0.7,1.4-1.1
						c-1.2-0.6-1.9-1.3-1.9-2.2c0-0.7,0.4-1.4,1.1-2c0.7-0.6,1.5-1.1,2.4-1.3c0.5-0.1,1-0.2,1.7-0.2c1.1,0,1.9,0.1,2.3,0.4
						c0.1,0,0.2-0.2,0.4-0.4c0.2-0.2,0.3-0.3,0.4-0.4C150.3,141.9,150.8,142.1,151.1,142.4z M146.8,149.5c-0.5-0.3-1.2-0.6-1.9-0.8
						c-0.6,0.3-1.1,0.6-1.6,0.9c-0.6,0.4-0.9,0.8-0.9,1.1c0,0.1,0,0.2,0.1,0.3c0.3,0.2,0.9,0.4,1.9,0.4c0.3,0,0.6,0,0.8-0.1
						c0.5-0.1,0.9-0.2,1.4-0.4c0.6-0.2,0.9-0.5,0.9-0.7C147.5,149.9,147.3,149.7,146.8,149.5z M147.9,143.9
						c-0.6-0.1-1.1-0.2-1.5-0.2c-0.7,0-1.4,0.2-2.1,0.5c-0.9,0.5-1.4,1-1.4,1.6c0,0.5,0.4,0.9,1.3,1.2c0.5-0.3,1.2-0.7,2-1.3
						c0.4-0.3,0.7-0.6,0.9-0.9C147.4,144.5,147.6,144.2,147.9,143.9z"/>
					<path d="M154.5,146.3c-0.2,0.3-0.4,0.5-0.8,0.8c-0.4,0.2-0.7,0.4-1.1,0.4c-0.2-0.1-0.5-0.3-0.7-0.6c-0.3-0.3-0.4-0.6-0.4-0.9
						c0.3-0.3,0.6-0.5,1.1-0.8c0.5-0.3,0.9-0.5,1.2-0.5c0.2,0.1,0.3,0.4,0.5,0.7C154.5,145.7,154.5,146,154.5,146.3z M154.5,151.1
						c-0.2,0.3-0.4,0.5-0.8,0.8c-0.4,0.2-0.7,0.4-1.1,0.4c-0.2-0.1-0.5-0.3-0.7-0.6c-0.3-0.3-0.4-0.6-0.4-0.9
						c0.3-0.3,0.6-0.5,1.1-0.8c0.5-0.3,0.9-0.5,1.2-0.5c0.2,0.1,0.3,0.4,0.5,0.7C154.5,150.5,154.5,150.8,154.5,151.1z"/>
					<path d="M160.3,142.4c-0.2,2.8-0.3,5.5-0.3,7.9c0,0.7,0,1.3,0,1.9c-0.2,0.2-0.7,0.3-1.3,0.3c0-0.8,0-1.8,0-3.1
						c0-1.6,0-2.6,0-3.1c0-0.7-0.1-1.2-0.1-1.7c-0.4,0.1-0.8,0.2-1,0.3c-0.3,0.2-0.5,0.3-0.5,0.3c-0.1-0.1-0.2-0.4-0.4-0.8
						s-0.3-0.7-0.3-1c0.7-0.3,1.4-0.6,2-0.7C159.4,142.6,160,142.5,160.3,142.4z"/>
					<path d="M166.2,142.4c-0.2,2.8-0.3,5.5-0.3,7.9c0,0.7,0,1.3,0,1.9c-0.2,0.2-0.7,0.3-1.3,0.3c0-0.8,0-1.8,0-3.1
						c0-1.6,0-2.6,0-3.1c0-0.7-0.1-1.2-0.1-1.7c-0.4,0.1-0.8,0.2-1,0.3c-0.3,0.2-0.5,0.3-0.5,0.3c-0.1-0.1-0.2-0.4-0.4-0.8
						s-0.3-0.7-0.3-1c0.7-0.3,1.4-0.6,2-0.7C165.2,142.6,165.9,142.5,166.2,142.4z"/>
				</g>
			</g>
			<path d="M196.8,109.7c-1.1-7.5-2.7-14.6-7.7-20.5c-4.8-5.7-11.3-9.4-18.1-12.1c-7.2-2.9-23.6-6.9-47.4-1.8
				c-19.8,4.3-43.2,13.6-45.8,46c-0.6,7.2,2.4,14.3,6.2,20.3c8,12.8,22.2,20.9,36.7,23.6c36.5,6.9,56.7-6.6,65.5-16.4
				c4.5-5,8-11,9.9-17.5C198.3,124.1,197.9,117,196.8,109.7z M137.7,80.5c0-0.4,0-0.7-0.1-1c0.7,0.3,1.7,0.3,2.2,1
				c0.9,1.4-0.6,2.3-1.8,2.7c0-0.3,0-0.5-0.1-0.8c-0.2-0.6-1.1-0.6-1.3,0c-0.1,0.3-0.1,0.6-0.1,0.9c-1-0.2-1.7-0.8-1.3-2
				c0.2-0.7,0.6-1.1,1.2-1.5c0,0.2,0,0.4,0,0.6C136.4,81.4,137.7,81.4,137.7,80.5z M196.2,125c-0.8,6.5-3.3,12.7-7,18.1
				c-0.6-0.6-1.3-1.2-1.9-1.7c-0.6-0.5-1.2-1.3-2-1.4c-0.4-0.1-0.6,0.2-0.6,0.6c0.1,0.8,0.9,1.4,1.4,2c0.6,0.7,1.3,1.4,1.9,2.1
				c0,0,0,0,0.1,0c-5.8,7.8-13.7,13.2-22.5,16.6c-0.1-0.6-0.4-1.2-0.6-1.8c-0.2-0.6-0.3-1.2-0.6-1.8c-0.3-0.5-1-0.4-1.2,0.2
				c-0.2,0.7,0,1.4,0.1,2.1c0.2,0.7,0.3,1.3,0.7,1.9c-5.2,1.9-14,4.4-22.8,4.1c-0.1-2.3,0-4.6,0.3-6.8c0.1-0.8-1.2-0.8-1.3,0
				c-0.3,2.3-0.3,4.5-0.2,6.8c-10-0.2-20-1.6-29.3-5.1c0.1-0.1,0.2-0.2,0.3-0.4c0.4-0.4,0.8-0.9,1.1-1.4c0.6-0.9-0.7-1.7-1.4-1.1
				c-0.4,0.3-0.7,0.8-1.1,1.3c-0.2,0.3-0.5,0.6-0.7,0.9c-1.6-0.7-3.2-1.4-4.8-2.2c-7-3.6-13.2-8.7-17.7-14.9
				c0.5-0.2,0.9-0.5,1.4-0.8c0.6-0.4,1.5-0.8,1.9-1.5c0.3-0.5-0.2-1-0.7-0.9c-0.8,0.1-1.5,0.9-2.1,1.3c-0.4,0.3-0.8,0.6-1.2,0.9
				c-3.4-5-5.8-10.6-6.6-16.8c-0.4-3.1-0.4-6.1,0-8.9c0.6,0.1,1.3,0,1.9,0c1.4,0,2.9,0,4.3,0c0.9,0,0.9-1.4,0-1.4
				c-1.4,0-2.9,0-4.3,0c-0.5,0-1.1-0.1-1.7,0c2.3-9.2,6.5-16.2,11.5-21.5c0.8,0.8,2,1.4,3.1,1.7c0.3,0.1,0.6,0,0.8-0.2
				c0.2-0.2,0.3-0.5,0.2-0.8c-0.2-0.5-0.6-0.6-1.1-0.7c-0.7-0.2-1.3-0.6-2-1c5.6-5.6,12.1-9.2,18.2-11.6c0.1,1,0.5,2,0.9,2.8
				c0.5,0.9,2.1,0.3,1.7-0.7c-0.2-0.5-0.4-0.9-0.6-1.4c-0.2-0.4-0.3-0.9-0.5-1.3c2.2-0.8,4.4-1.5,6.4-2c5.9-1.6,12-2.7,18-3.7
				c-0.1,1.2,0,2.5,0.2,3.7c-1.6,0.5-3,2.1-3.1,3.7c-0.2,2.4,2.1,3.9,4.3,3.7c2.1-0.3,4.2-2.1,4-4.4c-0.1-1.1-0.7-1.9-1.6-2.4
				c-0.5-0.3-1.2-0.5-1.8-0.5c0-0.1-0.1-0.1-0.2-0.1c-0.1,0-0.1,0-0.2,0c0-0.2,0-0.4-0.1-0.6c0.8,0.2,1.6,0.2,2.4,0.5
				c1.3,0.4,1.9,1.4,2.2,2.6c0.5,1.8-0.4,4.1-2.1,4.9c-0.1,0,0,0.2,0.1,0.2c2.5-0.4,4.2-2.6,3.4-5.1c-0.8-2.6-3.3-4.3-6-3.5
				c-0.1-0.9-0.1-1.7-0.1-2.6c12.1-0.8,23.4,1.6,31.9,4.5c-0.6,0.7-1.3,1.4-1.6,2.3c-0.1,0.4,0.2,0.6,0.6,0.6c1.1-0.1,2-1.1,2.6-1.9
				c0.1-0.1,0.1-0.2,0.2-0.3c5.2,2,9.2,4.1,11.5,5.8c3.5,2.6,6.3,5.8,8.3,9.4c-0.5,0-1.1,0.2-1.6,0.3c-0.7,0.2-1.4,0.3-2,0.8
				c-0.1,0.1-0.1,0.4,0.1,0.5c0.7,0.3,1.4,0.2,2.1,0.1c0.7-0.1,1.5,0,2.1-0.5c1.1,2.2,2,4.6,2.5,7.1c1,4.3,1.8,8.8,2.1,13.3
				c-2.1,0-4.3-0.1-6.3,0.3c-0.4,0.1-0.4,0.8,0,0.9c2.1,0.4,4.3,0.3,6.4,0.3C196.5,120.2,196.5,122.6,196.2,125z"/>
			<path d="M184.2,63.8c0.1-0.2,0.1-0.4,0-0.6c1.6,0.4,3.4,0.5,3-1.7c-0.4-2.8-6.3-3.1-8.1-3.5c-2.4-0.6-8.8-2.4-10-1.2
				c-1.1,1.2,0.5,2.5,1.8,3.1c-0.1,0.2-0.2,0.4-0.3,0.6c-6.7-1.4-14.9-2.8-23.9-3.4c1.3-0.8,2-2.3,1.1-4c-0.4-0.7-1-1.2-1.7-1.4
				c8.7-2.4,16.9-9.8,17.2-19c0.4-10.7-10.7-19.1-20.7-19.1c-0.4,0-0.6,0.2-0.8,0.4c-12.7-0.2-27.9,3.9-30.6,17.8
				c-2.4,12.1,5.4,21.2,16.6,21.7c-0.5,0.2-1,0.5-1.3,1c-0.7,1-0.4,1.9,0.2,2.5c-7.4,0.5-14.9,1.7-22.2,3.9
				c-0.1-0.7-0.3-1.5-0.9-1.9c0.9-0.6,1.5-1.4,1.1-2.4c-0.8-2-3.7-0.8-5,0c-0.1,0.1-0.2,0.2-0.2,0.4c-2.1,0.5-4.2,1.4-6.3,2.1
				c-2.1,0.8-5.1,1.5-6.7,3.3c-1.7,2-1.1,4.4,1.4,3.9c0,0.4,0.2,0.8,0.4,1.2c-0.1,0.1-0.3,0.1-0.4,0.2c-12,6.7-20.3,18.8-23.7,32.2
				c-3.8,15.1-3.9,32,2.2,46.6c5.5,13.2,15.8,22.7,29.3,27.4c7.1,2.5,14.5,3.7,21.9,4.4c8.4,0.9,16.8,1.3,25.2,0.8
				c15-0.9,30-4.6,42.7-12.8c11.9-7.6,20.1-18.9,25.3-32.1C221.2,108.4,212.5,72.1,184.2,63.8z M177.4,61.5c0.1,0,5.1,0.9,5.2,1.8
				c-2.7-0.7-6.3-1.7-10.6-2.6C173.4,59.9,176.1,61.2,177.4,61.5z M171.9,57.7c1.2,0.3,1.7,0.4,2.5,0.5c1.7,0.4,3.3,0.8,5,1.2
				c1.1,0.3,4.5,0.8,4.9,1.4s0.2,1.2-0.8,1c-1-1-2.5-1.2-3.9-1.4c-1.7-0.2-3.4-0.5-5-1c-0.8-0.2-1.6-0.5-2.5-0.3c0,0-0.1,0-0.1,0
				C170.7,58.9,170.7,57.4,171.9,57.7z M114.3,45.3c-3.6-5.5-4-12.8-0.7-18.5c5.6-9.9,18-11.5,28.6-11.5c0.1,0.1,0.2,0.1,0.4,0.1
				c9.6-0.1,20.2,8.5,19.1,18.6c-1.2,10.8-10.8,13.8-19.2,17.2c-0.5,0-0.9,0.1-1.4,0.1c0.1-0.2,0.1-0.5,0.1-0.7c0-0.1,0-0.2-0.1-0.4
				c15.9-5.3,18.1-12.8,15.6-21.9c-1.9-6.7-8.6-10-15.1-10.8c-8.9-1.1-23.9,2.9-27.1,15.6c-1.1,4.3-1.1,9.8,1.7,13.4
				c3.4,4.5,9.3,5,14.5,5.1c0,0.2,0,0.5,0,0.7C124.2,51.8,118.2,51.4,114.3,45.3z M138,35.5c-1.5,0.2-2.9,0.4-4.3,0.6
				c0-0.1,0-0.3,0-0.4c0-0.8,0.3-0.8,1.1-1.1C138.1,33.8,138,35.4,138,35.5z M146.9,38.6c0.5,1.6,0.8,4.7-1.1,5.7
				c-0.8,0.4-1.7,0.4-2.5,0.5c-0.8,0.1-1.5,0.2-2.3,0.3c-0.5-2.2-4.2-1.8-5.9-1.5c-1.9,0.3-4.8,1.5-5.3,3.6
				c-2.6,1.1-4.3,0.1-5.2-3.1c-0.3-1.8,0.2-3.3,1.6-4.7c1.2-0.9,4.1-1.1,5.6-1.5C134.2,37.3,145.9,34.9,146.9,38.6z M131.6,47.1
				c0.5-1.4,3.3-1.9,4.4-2.1c1.1-0.2,4.4-0.7,3.2,1.7c-0.5,1-2.4,2.5-5.4,2.3C132.8,48.9,131,48.6,131.6,47.1z M131.9,51.6
				c0.2-1,1.8-1.1,2.4-1.2c0.7-0.1,1.4-0.1,2.1-0.1c0.7,0,1.3-0.1,2-0.1c1.1,0,1.3,0.9,0.5,1.4c0,0,0,0,0,0c-0.1,0-0.1,0-0.2,0
				c-2.3,0.2-4.5,0.5-6.7,0.9C131.8,52.2,131.8,51.9,131.9,51.6z M138.3,48.9c1.2-0.7,2.3-1.6,2.6-2.7c1.2-0.1,2.4-0.3,3.7-0.5
				c0.9-0.1,1.9-0.3,2.6-1c1.2-1.2,3.4-11-7.6-9.2c0.1-0.6,0-1.3-0.5-1.8c-0.8-0.8-1.9-0.7-2.9-0.5c-1,0.1-2.3,0.3-3.1,0.9
				c-0.8,0.6-0.6,1.6-0.5,2.5c-2.4,0.5-4.3,1-5,1.1c-4.5,1.2-4.9,3.3-4.1,8.1c0.6,3.9,3,3.8,6.5,2.9c0.1,0.6,0.4,1,0.8,1.3
				c-5-0.1-11.2-0.7-13.8-5.6c-2.3-4.3-1.2-10.6,0.8-14.7c4.9-9.8,18.4-11.1,23.8-10.1s10.6,3.3,13.1,8.3
				c3.9,7.8,1.7,17.1-14.1,21.7C139.9,49,139.1,48.9,138.3,48.9z M131.6,54.1c1.9-0.3,3.7-0.5,5.6-0.7c1.5-0.1,5.4-0.3,5.9-0.4
				c2.6-0.3,2,2.4,1.1,3.8c-4.9-0.3-10-0.3-15.2,0C128.1,55.4,129.2,54.5,131.6,54.1z M88.4,65.1c-1.4,0.3-1.4-0.6,0.1-2.6
				c0.6-0.3,1.2-0.7,1.8-0.9c1.4-0.7,2.9-1.2,4.4-1.8c2-0.8,4.1-1.4,6-2.4c0.4-0.2,0.9-0.4,1.4-0.5c0.5-0.1,2-0.3,1.6,0.6
				c-0.2,0.5-0.6,0.9-1.1,1.3c-0.8,0.2-1.7,0.7-2.3,0.9c-1.6,0.6-3.2,1.2-4.9,1.8c-2.1,0.8-5.4,1.7-6.9,3.4
				C88.5,64.9,88.4,65,88.4,65.1z M103.2,61.3c-4.6,1.4-9,3.2-13.4,5.5c0.2-2.4,4.4-3.5,6.4-4.2c1.4-0.6,2.9-1.1,4.3-1.6
				c0.8-0.3,1.5-0.6,2.3-0.8C103,60.5,103.1,60.9,103.2,61.3z M193,158.9c-22.5,19.9-55.8,21.8-84,16.9c-14.2-2.4-27.5-8.1-36-20.3
				c-8.7-12.5-10.9-28-9.5-42.9c0.7-7.7,2.2-15.5,5.5-22.5c2.9-6,6.6-11.8,11.9-15.7c30.6-22.7,75.3-15.6,89.3-12.9
				c4.1,0.8,8.2,1.8,12.2,3.1c0.1,0.1,0.3,0.2,0.6,0.2c2.6,0.9,5.2,1.9,7.8,3.1c12.4,5.9,26.2,25.2,21.6,54.9
				C210.2,136.8,203.6,149.5,193,158.9z"/>
			<path d="M200.6,112c-0.3-10.8-3.3-23.5-12.1-30.4c-8.4-6.7-21.1-11.5-31.8-11.8c-0.1,0-0.1,0-0.1,0c-11.8-1.1-24.1,0.8-35.6,3.3
				c-5.5,1.2-10.8,2.9-16.1,5c-27.8,11-34.5,38.2-27.6,58.1c4.6,13.3,18.2,24.8,30.9,29.3c19,6.7,41,6.1,49.4,3.7
				C188.5,160.6,204.4,139.4,200.6,112z M154.8,168.3c-7.1,1.6-28.3,1.7-41.9-2.8c-14.5-4.8-43.6-21-35.1-56.9
				c3.1-13.4,12.7-24.4,29.3-30.4c5.5-2,11.3-3.5,17-4.5c10.8-1.8,21.4-2.2,32.3-2.5c0.1,0.1,0.2,0.1,0.3,0.1
				c10.2,0.4,21.4,4.7,29.7,10.7c8.8,6.3,12.1,18.1,13.2,28.6c-0.2,0.1-0.3,0.3-0.3,0.5c-0.1,7.5,0.6,14.9-1.6,22.3
				c-1.9,6.6-5.7,12.7-10.3,17.8C178.3,160.9,164.5,166.1,154.8,168.3z"/>
		</g>
	</g>
</g>
</svg>
